<svg width="1440" height="107" viewBox="0 0 1440 107" fill="none" xmlns="http://www.w3.org/2000/svg">
<path d="M87.1674 37.8574H168.178L145.231 29.6475C137.521 26.8898 129.331 26.545 121.473 28.6475L87.1674 37.8574Z" fill="#7B5881"/>
<path d="M575.694 9.12739H648.638L642.345 4.8274C638.716 2.34706 634.686 0.779842 630.512 0.225474C626.338 -0.328894 622.112 0.141701 618.101 1.60737C615 2.73787 611.764 3.27809 608.516 3.20741L604.56 3.11738C602.342 3.06505 600.125 3.29981 597.951 3.81739L575.694 9.12739Z" fill="#7B5881"/>
<path d="M971.785 106.327H1044.73L1038.44 102.027C1034.81 99.549 1030.78 97.9829 1026.61 97.4286C1022.43 96.8742 1018.21 97.3438 1014.2 98.8074C1011.1 99.947 1007.86 100.487 1004.62 100.407L1000.66 100.317C998.44 100.268 996.224 100.507 994.05 101.027L971.785 106.327Z" fill="#7B5881"/>
<path d="M772.891 37.7375H864.748L842.782 30.1975C836.993 28.2056 830.859 28.0298 824.994 29.6875L823.356 30.1475C817.99 31.656 812.394 31.6388 807.035 30.0974L804.084 29.2475C799.523 27.9334 794.78 27.7239 790.147 28.6317C785.514 29.5395 781.087 31.5456 777.138 34.5274L772.891 37.7375Z" fill="#7B5881"/>
<path d="M1348.13 56.7173H1440L1418.03 49.1774C1412.24 47.1851 1406.1 47.0093 1400.24 48.6673L1398.61 49.1274C1393.24 50.6409 1387.65 50.6238 1382.29 49.0774L1379.33 48.2273C1374.76 46.9153 1370.02 46.7078 1365.39 47.6173C1360.76 48.5268 1356.33 50.5344 1352.38 53.5174L1348.13 56.7173Z" fill="#7B5881"/>
<path d="M1195.54 33.4173H1255.93L1233.76 25.3473C1226.26 22.621 1218.19 22.9737 1210.89 26.3473L1195.54 33.4173Z" fill="#7B5881"/>
<path d="M456.882 99.2775H517.265L495.042 91.2075C487.546 88.486 479.483 88.8387 472.18 92.2075L456.882 99.2775Z" fill="#7B5881"/>
<path d="M1007.69 18.9274H1062.09L1052.33 15.4474C1037.59 10.1882 1021.71 11.4257 1007.69 18.9274Z" fill="#7B5881"/>
<path d="M687.728 101.557H596.544L621.427 93.1973C625.491 91.8362 629.812 91.9688 633.809 93.5773C638.234 95.3631 643.046 95.3314 647.453 93.4873L656.654 89.5573C659.578 88.3337 662.699 87.9006 665.785 88.2902C668.871 88.6798 671.842 89.8821 674.477 91.8073L687.728 101.557Z" fill="#7B5881"/>
<path d="M853.518 99.2074H903.77L877.557 91.3574C874.174 90.3434 870.643 90.2082 867.211 90.9613C863.779 91.7144 860.529 93.3376 857.688 95.7174L853.518 99.2074Z" fill="#7B5881"/>
<path d="M0 25.5573H50.3118L24.0985 17.7073C20.7157 16.6933 17.1849 16.558 13.753 17.3111C10.321 18.0642 7.0708 19.6875 4.2296 22.0673L0 25.5573Z" fill="#7B5881"/>
<path d="M1094.48 90.6199H1170.12L1159.73 85.7299C1155.06 83.5284 1149.93 83.1017 1145.05 84.5099C1140.6 85.8035 1135.93 85.5709 1131.6 83.8399L1129.22 82.8399C1124.21 80.8398 1118.77 80.8398 1113.76 82.8399L1094.48 90.6199Z" fill="#7B5881"/>
</svg>
