<svg width="220" height="140" viewBox="0 0 220 140" fill="none" xmlns="http://www.w3.org/2000/svg">
<path d="M54.5974 71.125L127.258 71.125V59.354L54.5974 59.354V71.125Z" fill="#CC8472"/>
<path d="M67.2053 122.263H115.817V117.387H67.2053V122.263Z" fill="#A3697A"/>
<path d="M127.25 139.524H115.088L105.566 78.6958H117.729L127.25 139.524Z" fill="#CC8472"/>
<path d="M116.547 71.125L117.729 78.6959H105.567L104.376 71.125H116.547Z" fill="#A3697A"/>
<path d="M76.2813 78.6958L66.7601 139.524H54.5898L64.1187 78.6958H76.2813Z" fill="#CC8472"/>
<path d="M65.3012 71.125H77.4637L76.2813 78.6959H64.1187L65.3012 71.125Z" fill="#A3697A"/>
<path d="M0.142227 14.5581L219.368 14.5581V-7.05719e-05L0.142227 -7.05719e-05V14.5581Z" fill="#CC8472"/>
<path d="M19.6072 139.524H34.4111L34.4111 14.5504H19.6072L19.6072 139.524Z" fill="#CC8472"/>
<path d="M185.107 139.531H199.91L199.91 14.5582H185.107L185.107 139.531Z" fill="#CC8472"/>
<path d="M19.6072 23.803L34.4111 23.803V14.5505L19.6072 14.5505V23.803Z" fill="#A3697A"/>
<path d="M185.107 23.803L199.91 23.803V14.5505L185.107 14.5505V23.803Z" fill="#A3697A"/>
<path d="M34.4031 37.2632L185.107 37.2632V14.5582L34.4031 14.5582V37.2632Z" fill="#A3697A"/>
<path d="M34.4031 23.803L185.107 23.803V14.5505L34.4031 14.5505V23.803Z" fill="#7C577F"/>
<path d="M37.6206 0L55.2118 27.0125L90.9239 0H37.6206Z" fill="#F3D68F"/>
<path d="M140.925 0L154.685 13.5062L172.176 0H140.925Z" fill="#F3D68F"/>
</svg>
