<svg width="368" height="497" viewBox="0 0 368 497" fill="none" xmlns="http://www.w3.org/2000/svg">
<path d="M184 0C232.57 0 279.15 19.4533 313.494 54.0803C347.837 88.7073 367.132 135.672 367.132 184.642V496.07H0.868652V184.642C0.868652 135.672 20.1627 88.7073 54.5065 54.0803C88.8503 19.4533 135.431 0 184 0Z" fill="#EFBB74"/>
<path d="M27.3411 496.07V184.642C27.3411 97.5361 97.6308 26.6667 184.024 26.6667C270.417 26.6667 340.707 97.5361 340.707 184.642V496.07H27.3411Z" fill="#F3D68F"/>
<mask id="mask0_189_482" style="mask-type:luminance" maskUnits="userSpaceOnUse" x="44" y="44" width="280" height="453">
<path d="M44.9468 496.07V184.642C44.9468 107.337 107.327 44.4419 184 44.4419C260.672 44.4419 323.053 107.337 323.053 184.642V496.07H44.9468Z" fill="white"/>
</mask>
<g mask="url(#mask0_189_482)">
<path d="M124.404 26.6667H84.6753V496.062H124.404V26.6667Z" fill="#DD8F52"/>
<path d="M84.6751 26.6667H44.9468V496.062H84.6751V26.6667Z" fill="#DD8F52"/>
<path d="M164.132 26.6667H124.403V496.062H164.132V26.6667Z" fill="#DD8F52"/>
<path d="M283.325 26.6667H243.596V496.062H283.325V26.6667Z" fill="#DD8F52"/>
<path d="M323.053 26.6667H283.325V496.062H323.053V26.6667Z" fill="#DD8F52"/>
<path d="M203.86 26.6667H164.132V496.062H203.86V26.6667Z" fill="#DD8F52"/>
<path d="M243.588 26.6667H203.86V496.062H243.588V26.6667Z" fill="#DD8F52"/>
<path d="M44.9468 26.6667H84.6751V496.062H44.9468L75.2156 482.442L76.9398 445.001L55.3475 390.208L76.0777 422.17L80.8233 251.396L69.5605 211.667L81.6933 172.855L67.0058 137.241L79.9612 150.032L78.2369 114.41L64.8149 102.233L77.802 106.196L69.5605 56.8821L79.099 34.9602L44.9468 26.6667Z" fill="#C96854"/>
<path d="M124.403 26.6667H164.132V496.062H124.403L136.536 476.509L156.396 445.001L144.271 424.451L155.534 422.17L160.288 251.396L149.025 211.667L158.564 139.067L146.605 129.681L158.318 127.257L157.694 114.41L134.677 93.0066L157.258 106.196L149.025 56.8821L158.556 34.9602L124.403 26.6667Z" fill="#C96854"/>
<path d="M203.86 26.6667H243.588V496.062H203.86L234.129 482.442L235.853 381.987L214.261 327.194L234.991 359.156L239.745 251.396L236.731 210.607L240.607 172.855L216.871 127.807L231.843 129.937L237.15 114.41L227.912 107.903L236.715 106.196L228.482 56.8821L238.012 34.9602L203.86 26.6667Z" fill="#C96854"/>
<path d="M283.325 26.6667H323.053V496.062H283.325L313.586 482.442L315.31 402.074L293.718 347.282L314.448 379.251L319.201 327.497L307.938 287.776L320.063 248.964L305.376 213.342L318.331 226.133L316.607 114.41L316.172 106.196L307.938 56.8821L317.469 34.9602L283.325 26.6667Z" fill="#C96854"/>
<path d="M124.404 26.6667L108.917 93.0066L116.099 115.024L121.279 185.032L114.944 210.001L119.555 221.564L117.965 321.715L106.56 344.092L102.527 373.924L119.555 429.172L113.22 485.185L84.6753 496.062H124.404V26.6667Z" fill="#C96854"/>
<path d="M203.86 26.6667L184 97.7913L195.555 115.024L186.207 146.835L195.279 163.964L199.162 187.927L190.09 244.092L199.012 382.29L194.978 412.122L199.012 429.172L192.676 485.185L164.132 496.062H203.86V26.6667Z" fill="#C96854"/>
<path d="M283.325 26.6667L274.632 102.233L261.187 97.7913L275.012 115.024L277.614 150.168L268.21 187.473L278.468 221.564L265.814 261.364L270.425 343.932L266.391 373.765L278.468 429.172L272.133 485.185L243.596 496.062H283.325V26.6667Z" fill="#C96854"/>
</g>
<path d="M223.673 88.8997H144.327V133.342H223.673V88.8997Z" fill="#F3D68F"/>
<path d="M214.862 124.458V97.7913H153.146V124.458H214.862Z" fill="#46386C"/>
<path d="M219.26 107.903H148.733V114.346H219.26V107.903Z" fill="#EFBB74"/>
<path d="M170.665 129.243V93.0146H164.274V129.243H170.665Z" fill="#EFBB74"/>
<path d="M187.195 129.243V93.0146H180.805V129.243H187.195Z" fill="#EFBB74"/>
<path d="M203.726 129.243V93.0146H197.335V129.243H203.726Z" fill="#EFBB74"/>
<path d="M345.334 143.565H22.6665V171.125H345.334V143.565Z" fill="#F3D68F"/>
<path d="M22.6665 143.565V171.125H345.365V143.565C342.281 149.551 337.626 154.568 331.907 158.069C326.189 161.57 319.627 163.422 312.937 163.421H163.736C161.998 163.42 160.261 163.295 158.54 163.047L124.799 158.15C121.108 157.617 117.358 157.655 113.679 158.262L74.7254 164.713C72.7695 165.035 70.7911 165.197 68.8093 165.2H56.5577C50.5706 165.199 44.6754 163.715 39.3905 160.879C34.1056 158.042 29.5929 153.939 26.2494 148.932L22.6665 143.565Z" fill="#CE8772"/>
<path d="M345.334 287.569H22.6665V315.128H345.334V287.569Z" fill="#F3D68F"/>
<path d="M22.6665 287.569V315.128H345.365V287.569C342.28 293.553 337.625 298.569 331.907 302.069C326.188 305.569 319.627 307.419 312.937 307.417H163.736C161.998 307.42 160.261 307.295 158.54 307.042L124.799 302.154C121.108 301.621 117.358 301.658 113.679 302.266L74.7254 308.709C72.7699 309.034 70.7912 309.197 68.8093 309.195H56.5577C50.5702 309.197 44.6742 307.714 39.389 304.877C34.1037 302.04 29.5914 297.936 26.2494 292.927L22.6665 287.569Z" fill="#CE8772"/>
<path d="M345.334 431.572H22.6665V459.132H345.334V431.572Z" fill="#F3D68F"/>
<path d="M22.6665 431.572V459.132H345.365V431.572C342.279 437.556 337.623 442.571 331.905 446.071C326.187 449.571 319.626 451.421 312.937 451.421H163.736C161.998 451.42 160.261 451.295 158.54 451.046L124.799 446.158C121.108 445.624 117.358 445.662 113.679 446.269L74.7254 452.713C72.7699 453.038 70.7912 453.201 68.8093 453.199H56.5577C50.5706 453.198 44.6754 451.715 39.3905 448.878C34.1056 446.041 29.5929 441.939 26.2494 436.931L22.6665 431.572Z" fill="#CE8772"/>
</svg>
