<svg width="135" height="174" viewBox="0 0 135 174" fill="none" xmlns="http://www.w3.org/2000/svg">
<path d="M0.170883 153.28L134.639 153.28L134.639 5.94069L0.170883 5.94069L0.170883 153.28Z" fill="#CC8472"/>
<path d="M126.854 145.495L126.854 13.718L7.95557 13.718L7.95557 145.495H126.854Z" fill="#A3697A"/>
<path d="M123.516 142.156L123.516 17.0566L11.2867 17.0566L11.2867 142.156H123.516Z" fill="#CC8472"/>
<path d="M65.3865 145.495H69.29L69.29 13.7182H65.3865L65.3865 145.495Z" fill="#A3697A"/>
<path d="M0.170883 5.93335L134.639 5.93335V-4.43459e-05L0.170883 -4.43459e-05V5.93335Z" fill="#BF7576"/>
<path d="M0.170883 159.206L134.639 159.206V153.272L0.170883 153.272V159.206Z" fill="#BF7576"/>
<path d="M116.341 173.95H134.632V159.221H116.341V173.95Z" fill="#CC8472"/>
<path d="M0.178299 173.943H18.4692L18.4692 159.213H0.178299L0.178299 173.943Z" fill="#CC8472"/>
<path d="M116.348 165.474H134.639V159.213H116.348V165.474Z" fill="#A3697A"/>
<path d="M0.178299 165.474H18.4692V159.213H0.178299V165.474Z" fill="#A3697A"/>
<path d="M76.5022 82.0566V81.9599C76.5225 80.505 77.0117 79.0955 77.8973 77.941C78.7828 76.7864 80.0174 75.9485 81.4173 75.5518C82.8172 75.155 84.3077 75.2206 85.6674 75.7389C87.027 76.2571 88.1831 77.2003 88.9637 78.4281C89.0741 78.5964 89.1759 78.77 89.2686 78.9486V79.0006C89.3504 79.1642 89.4322 79.3352 89.5066 79.5062C89.5181 79.5495 89.533 79.5918 89.5512 79.6327C89.6106 79.7814 89.6627 79.9375 89.7147 80.1011C89.7364 80.1719 89.7538 80.2438 89.7668 80.3167C89.7668 80.4505 89.8412 80.5844 89.8709 80.7182C89.9007 80.852 89.8709 80.9487 89.9229 81.0677L89.9676 81.3725C89.9676 81.5956 89.9676 81.8187 89.9676 82.0417C89.968 83.4846 89.5073 84.8898 88.6525 86.0522C87.7977 87.2146 86.5938 88.0734 85.2164 88.503C83.9063 88.9094 82.5039 88.9094 81.1938 88.503C79.8164 88.0734 78.6125 87.2146 77.7577 86.0522C76.9029 84.8898 76.4422 83.4846 76.4426 82.0417L76.5022 82.0566Z" fill="#A3697A"/>
<path d="M80.4874 83.6849C84.2243 83.6849 87.2536 80.6556 87.2536 76.9187C87.2536 73.1819 84.2243 70.1526 80.4874 70.1526C76.7506 70.1526 73.7212 73.1819 73.7212 76.9187C73.7212 80.6556 76.7506 83.6849 80.4874 83.6849Z" fill="#F3D68F"/>
<path d="M78.6657 78.9709C80.4467 78.971 82.1558 78.2681 83.4214 77.015C84.687 75.7619 85.4069 74.06 85.4245 72.2791C86.1754 73.0848 86.7179 74.0617 87.005 75.1249C87.2921 76.1882 87.315 77.3055 87.0718 78.3796C86.8285 79.4538 86.3265 80.4522 85.6094 81.288C84.8922 82.1238 83.9817 82.7717 82.957 83.1754C81.9323 83.579 80.8245 83.7261 79.73 83.6039C78.6355 83.4817 77.5873 83.0939 76.6769 82.4742C75.7665 81.8545 75.0213 81.0217 74.5062 80.0483C73.9911 79.0749 73.7215 77.9903 73.7212 76.889C73.7212 76.889 73.7212 76.822 73.7212 76.7849C74.3497 77.471 75.1136 78.0194 75.9646 78.3957C76.8156 78.7719 77.7353 78.9677 78.6657 78.9709Z" fill="#EFBB74"/>
<path d="M50.5527 82.0566C50.5527 82.0566 50.5527 81.9897 50.5527 81.9599C50.5731 80.505 51.0624 79.0955 51.9479 77.941C52.8335 76.7864 54.0679 75.9485 55.4678 75.5518C56.8678 75.155 58.3583 75.2206 59.7179 75.7389C61.0776 76.2571 62.2337 77.2003 63.0144 78.4281C63.1223 78.5965 63.2215 78.7702 63.3117 78.9486V79.0006C63.3935 79.1642 63.4679 79.3352 63.5423 79.5062L63.5868 79.6327C63.6503 79.7856 63.7049 79.942 63.7505 80.1011C63.7505 80.168 63.7504 80.2424 63.8099 80.3167C63.8694 80.3911 63.8768 80.5844 63.9066 80.7182C63.9363 80.852 63.9065 80.9487 63.9586 81.0677C64.0106 81.1867 63.9586 81.2684 64.0033 81.3725C64.0033 81.5956 64.0033 81.8187 64.0033 82.0417C64.0044 83.4858 63.543 84.8922 62.6866 86.055C61.8303 87.2178 60.624 88.0757 59.2446 88.503C58.595 88.7071 57.918 88.8099 57.2371 88.8079C56.3483 88.8088 55.468 88.6345 54.6466 88.2948C53.8253 87.9551 53.079 87.4568 52.4505 86.8283C51.822 86.1998 51.3236 85.4535 50.9839 84.6322C50.6443 83.8108 50.47 82.9305 50.471 82.0417L50.5527 82.0566Z" fill="#A3697A"/>
<path d="M54.5379 83.6849C58.2747 83.6849 61.304 80.6556 61.304 76.9187C61.304 73.1819 58.2747 70.1526 54.5379 70.1526C50.801 70.1526 47.7717 73.1819 47.7717 76.9187C47.7717 80.6556 50.801 83.6849 54.5379 83.6849Z" fill="#F3D68F"/>
<path d="M52.7236 78.9709C54.504 78.969 56.212 78.2655 57.4772 77.0128C58.7424 75.7602 59.4628 74.0593 59.4824 72.2791C60.2356 73.0853 60.7801 74.0635 61.0686 75.1285C61.3571 76.1934 61.3808 77.3128 61.1377 78.389C60.8945 79.4652 60.3918 80.4656 59.6735 81.303C58.9551 82.1405 58.0429 82.7896 57.0163 83.1937C55.9896 83.5979 54.8797 83.7448 53.7833 83.6218C52.6868 83.4987 51.6371 83.1094 50.7255 82.4877C49.814 81.8661 49.0683 81.0309 48.5535 80.0551C48.0386 79.0792 47.7703 77.9923 47.7717 76.889C47.7717 76.889 47.7717 76.822 47.7717 76.7849C48.4011 77.4719 49.1661 78.0208 50.0185 78.3971C50.8708 78.7734 51.7919 78.9688 52.7236 78.9709Z" fill="#EFBB74"/>
<path d="M90.0271 17.0566L93.7448 19.3542C95.3081 20.3232 97.1102 20.8381 98.9495 20.8413H100.57C102.39 20.8397 104.174 21.3401 105.727 22.2872C107.28 23.2343 108.542 24.5916 109.374 26.2096L111.285 29.9272C111.402 30.1676 111.598 30.3608 111.839 30.4749C112.081 30.5891 112.355 30.6172 112.615 30.5548C112.875 30.4924 113.106 30.3432 113.27 30.1317C113.433 29.9203 113.52 29.6593 113.515 29.3919V26.3806C113.512 26.1124 113.6 25.8511 113.766 25.6406C113.933 25.4301 114.166 25.2832 114.428 25.2247C114.69 25.1663 114.964 25.1997 115.204 25.3195C115.444 25.4393 115.635 25.6381 115.746 25.8824C118.348 31.3739 119.697 37.3753 119.694 43.4521V50.4116C119.69 54.9657 120.444 59.4887 121.925 63.7952L123.508 68.4052V17.1013L90.0271 17.0566Z" fill="#A3697A"/>
<path d="M11.2944 30.864L15.5921 37.2064C16.7236 38.8744 17.382 40.8178 17.4972 42.8301C17.6124 44.8424 17.1802 46.8483 16.2464 48.6345L15.027 50.9841C14.0223 52.9085 13.6011 55.0843 13.815 57.2446L15.1088 70.3234C15.242 71.6373 15.1387 72.9644 14.8039 74.2419L11.2944 87.7221V30.864Z" fill="#A3697A"/>
</svg>
