<svg width="128" height="102" viewBox="0 0 128 102" fill="none" xmlns="http://www.w3.org/2000/svg">
<path d="M128 0H0V73.2556H128V0Z" fill="#BF7576"/>
<path d="M115.959 61.2069V12.0405L12.0486 12.0405V61.2069L115.959 61.2069Z" fill="#46386C"/>
<path d="M26.8782 6.27136H20.8539V67.2313H26.8782V6.27136Z" fill="#CE8772"/>
<path d="M42.927 6.27136H36.9027V67.2313H42.927V6.27136Z" fill="#CE8772"/>
<path d="M58.9837 6.27136H52.9595V67.2313H58.9837V6.27136Z" fill="#CE8772"/>
<path d="M75.0404 6.27136H69.0161V67.2313H75.0404V6.27136Z" fill="#CE8772"/>
<path d="M91.0973 6.27136H85.073V67.2313H91.0973V6.27136Z" fill="#CE8772"/>
<path d="M107.154 6.27136H101.13V67.2313H107.154V6.27136Z" fill="#CE8772"/>
<path d="M42.9271 61.215V91.5674C42.9271 92.2015 43.179 92.8095 43.6273 93.2579C44.0756 93.7062 44.6837 93.958 45.3177 93.958C45.9517 93.958 46.5598 93.7062 47.0081 93.2579C47.4564 92.8095 47.7083 92.2015 47.7083 91.5674V80.2361C47.7083 79.8953 47.7756 79.5579 47.9062 79.2431C48.0368 78.9284 48.2283 78.6426 48.4696 78.402C48.711 78.1614 48.9974 77.9708 49.3126 77.8411C49.6277 77.7114 49.9653 77.6452 50.3061 77.6463C50.6468 77.6463 50.9843 77.579 51.299 77.4484C51.6137 77.3177 51.8996 77.1262 52.1402 76.8849C52.3808 76.6436 52.5713 76.3571 52.701 76.042C52.8307 75.7269 52.8969 75.3893 52.8959 75.0485V61.215H42.9271Z" fill="#46386C"/>
<path d="M75.0405 61.215V83.288C75.0395 83.6613 75.1121 84.031 75.2542 84.3761C75.3963 84.7212 75.6051 85.0349 75.8686 85.2991C76.1321 85.5634 76.4452 85.7731 76.7899 85.9161C77.1346 86.0592 77.5041 86.1328 77.8774 86.1328C78.6318 86.1328 79.3554 86.4326 79.8889 86.9661C80.4224 87.4996 80.7222 88.2232 80.7222 88.9776V99.3369C80.7222 99.9138 80.9513 100.467 81.3593 100.875C81.7673 101.283 82.3206 101.512 82.8976 101.512C83.4746 101.512 84.0279 101.283 84.4359 100.875C84.8438 100.467 85.073 99.9138 85.073 99.3369V61.215H75.0405Z" fill="#46386C"/>
<path d="M26.8701 61.215V80.1086C26.8701 81.44 27.399 82.7169 28.3405 83.6584C29.282 84.5999 30.5589 85.1288 31.8903 85.1288C32.5492 85.1288 33.2017 84.9989 33.8103 84.7465C34.4189 84.4941 34.9718 84.1242 35.4374 83.6579C35.9029 83.1917 36.2719 82.6382 36.5234 82.0291C36.7748 81.4201 36.9037 80.7675 36.9026 80.1086V61.215H26.8701Z" fill="#46386C"/>
</svg>
