<svg width="21" height="292" viewBox="0 0 21 292" fill="none" xmlns="http://www.w3.org/2000/svg">
<path d="M10.32 291.51C7.58378 291.507 4.96038 290.419 3.02558 288.484C1.09078 286.55 0.00264753 283.926 0 281.19V273.65C-4.03893e-08 272.295 0.266936 270.953 0.785564 269.701C1.30419 268.449 2.06436 267.311 3.02266 266.353C3.98096 265.394 5.11863 264.634 6.37071 264.116C7.62279 263.597 8.96476 263.33 10.32 263.33C11.6752 263.33 13.0172 263.597 14.2693 264.116C15.5214 264.634 16.659 265.394 17.6173 266.353C18.5756 267.311 19.3358 268.449 19.8544 269.701C20.3731 270.953 20.64 272.295 20.64 273.65V281.19C20.6374 283.926 19.5492 286.55 17.6144 288.484C15.6796 290.419 13.0562 291.507 10.32 291.51ZM10.32 268.09C8.85582 268.106 7.45698 268.699 6.42722 269.74C5.39745 270.781 4.81991 272.186 4.82 273.65V281.19C4.88079 282.623 5.49262 283.976 6.52774 284.968C7.56285 285.96 8.94121 286.514 10.375 286.514C11.8088 286.514 13.1871 285.96 14.2223 284.968C15.2574 283.976 15.8692 282.623 15.93 281.19V273.65C15.93 272.916 15.7846 272.189 15.502 271.511C15.2195 270.833 14.8055 270.218 14.2839 269.701C13.7623 269.184 13.1434 268.775 12.4631 268.499C11.7827 268.222 11.0543 268.083 10.32 268.09Z" fill="#46386C"/>
<path d="M10.3199 275.83C9.68954 275.827 9.0857 275.576 8.63993 275.13C8.19417 274.684 7.94257 274.08 7.93994 273.45V250.03C7.93994 249.399 8.19069 248.793 8.63703 248.347C9.08336 247.901 9.68873 247.65 10.3199 247.65C10.9512 247.65 11.5565 247.901 12.0029 248.347C12.4492 248.793 12.6999 249.399 12.6999 250.03V273.45C12.6999 274.081 12.4492 274.686 12.0029 275.133C11.5565 275.579 10.9512 275.83 10.3199 275.83Z" fill="#46386C"/>
<path d="M10.32 260.55C7.58378 260.547 4.96038 259.459 3.02558 257.525C1.09078 255.59 0.00264753 252.966 0 250.23V242.69C-4.03893e-08 241.335 0.266936 239.993 0.785564 238.741C1.30419 237.489 2.06436 236.351 3.02266 235.393C3.98096 234.434 5.11863 233.674 6.37071 233.156C7.62279 232.637 8.96476 232.37 10.32 232.37C11.6752 232.37 13.0172 232.637 14.2693 233.156C15.5214 233.674 16.659 234.434 17.6173 235.393C18.5756 236.351 19.3358 237.489 19.8544 238.741C20.3731 239.993 20.64 241.335 20.64 242.69V250.23C20.6374 252.966 19.5492 255.59 17.6144 257.525C15.6796 259.459 13.0562 260.547 10.32 260.55ZM10.32 237.13C8.85664 237.149 7.4593 237.742 6.4301 238.783C5.40089 239.823 4.82251 241.227 4.82 242.69V250.23C4.7882 250.979 4.90833 251.727 5.17316 252.429C5.43799 253.131 5.84204 253.772 6.361 254.313C6.87997 254.855 7.50311 255.285 8.19294 255.58C8.88276 255.874 9.625 256.026 10.375 256.026C11.125 256.026 11.8672 255.874 12.5571 255.58C13.2469 255.285 13.87 254.855 14.389 254.313C14.908 253.772 15.312 253.131 15.5768 252.429C15.8417 251.727 15.9618 250.979 15.93 250.23V242.69C15.9287 241.956 15.7823 241.23 15.4993 240.552C15.2163 239.875 14.8023 239.26 14.2809 238.744C13.7596 238.227 13.1413 237.819 12.4615 237.542C11.7818 237.265 11.054 237.125 10.32 237.13Z" fill="#46386C"/>
<path d="M10.3199 244.87C9.68873 244.87 9.08336 244.619 8.63703 244.173C8.19069 243.727 7.93994 243.121 7.93994 242.49V219.08C7.93994 218.449 8.19069 217.843 8.63703 217.397C9.08336 216.951 9.68873 216.7 10.3199 216.7C10.9512 216.7 11.5565 216.951 12.0029 217.397C12.4492 217.843 12.6999 218.449 12.6999 219.08V242.49C12.7013 242.803 12.6406 243.113 12.5215 243.402C12.4023 243.692 12.2271 243.955 12.0058 244.176C11.7845 244.397 11.5216 244.572 11.2323 244.691C10.9429 244.811 10.6329 244.871 10.3199 244.87Z" fill="#46386C"/>
<path d="M10.32 229.59C7.58378 229.588 4.96038 228.499 3.02558 226.565C1.09078 224.63 0.00264753 222.006 0 219.27V211.73C8.157e-08 208.993 1.08728 206.368 3.02266 204.433C4.95803 202.497 7.58297 201.41 10.32 201.41C13.057 201.41 15.682 202.497 17.6173 204.433C19.5527 206.368 20.64 208.993 20.64 211.73V219.27C20.6374 222.006 19.5492 224.63 17.6144 226.565C15.6796 228.499 13.0562 229.588 10.32 229.59ZM10.32 206.18C8.85755 206.196 7.46021 206.787 6.43073 207.826C5.40125 208.865 4.82255 210.268 4.82 211.73V219.27C4.7882 220.019 4.90833 220.767 5.17316 221.469C5.43799 222.171 5.84204 222.812 6.361 223.353C6.87997 223.895 7.50311 224.325 8.19294 224.62C8.88276 224.914 9.625 225.066 10.375 225.066C11.125 225.066 11.8672 224.914 12.5571 224.62C13.2469 224.325 13.87 223.895 14.389 223.353C14.908 222.812 15.312 222.171 15.5768 221.469C15.8417 220.767 15.9618 220.019 15.93 219.27V211.73C15.9287 210.997 15.7823 210.271 15.4992 209.594C15.216 208.917 14.8018 208.303 14.2803 207.787C13.7589 207.271 13.1405 206.864 12.4608 206.588C11.7811 206.312 11.0535 206.174 10.32 206.18Z" fill="#46386C"/>
<path d="M10.3199 213.97C9.68781 213.967 9.08247 213.714 8.63642 213.266C8.19037 212.819 7.93994 212.212 7.93994 211.58V188.12C7.93994 187.489 8.19069 186.883 8.63703 186.437C9.08336 185.991 9.68873 185.74 10.3199 185.74C10.9512 185.74 11.5565 185.991 12.0029 186.437C12.4492 186.883 12.6999 187.489 12.6999 188.12V211.53C12.7079 211.848 12.6523 212.163 12.5363 212.459C12.4203 212.755 12.2462 213.024 12.0244 213.252C11.8026 213.479 11.5375 213.66 11.2448 213.783C10.9521 213.907 10.6376 213.97 10.3199 213.97Z" fill="#46386C"/>
<path d="M10.32 198.64C7.58378 198.637 4.96038 197.549 3.02558 195.614C1.09078 193.68 0.00264753 191.056 0 188.32V180.78C8.157e-08 178.043 1.08728 175.418 3.02266 173.483C4.95803 171.547 7.58297 170.46 10.32 170.46C13.057 170.46 15.682 171.547 17.6173 173.483C19.5527 175.418 20.64 178.043 20.64 180.78V188.32C20.6374 191.056 19.5492 193.68 17.6144 195.614C15.6796 197.549 13.0562 198.637 10.32 198.64ZM10.32 175.22C8.85582 175.236 7.45698 175.829 6.42722 176.87C5.39745 177.911 4.81991 179.316 4.82 180.78V188.32C4.88079 189.752 5.49262 191.106 6.52774 192.098C7.56285 193.09 8.94121 193.644 10.375 193.644C11.8088 193.644 13.1871 193.09 14.2223 192.098C15.2574 191.106 15.8692 189.752 15.93 188.32V180.78C15.93 180.046 15.7846 179.318 15.502 178.641C15.2195 177.963 14.8055 177.348 14.2839 176.831C13.7623 176.314 13.1434 175.905 12.4631 175.629C11.7827 175.352 11.0543 175.213 10.32 175.22Z" fill="#46386C"/>
<path d="M10.3199 182.97C9.68954 182.967 9.0857 182.716 8.63993 182.27C8.19417 181.824 7.94257 181.22 7.93994 180.59V157.16C7.93994 156.529 8.19069 155.923 8.63703 155.477C9.08336 155.031 9.68873 154.78 10.3199 154.78C10.9512 154.78 11.5565 155.031 12.0029 155.477C12.4492 155.923 12.6999 156.529 12.6999 157.16V180.58C12.7013 180.893 12.6407 181.204 12.5217 181.494C12.4026 181.784 12.2275 182.047 12.0064 182.269C11.7853 182.491 11.5225 182.668 11.233 182.788C10.9436 182.908 10.6333 182.97 10.3199 182.97Z" fill="#46386C"/>
<path d="M10.32 167.68C7.58378 167.677 4.96038 166.589 3.02558 164.654C1.09078 162.72 0.00264753 160.096 0 157.36V149.82C-4.03893e-08 148.465 0.266936 147.123 0.785564 145.871C1.30419 144.619 2.06436 143.481 3.02266 142.523C3.98096 141.564 5.11863 140.804 6.37071 140.286C7.62279 139.767 8.96476 139.5 10.32 139.5C11.6752 139.5 13.0172 139.767 14.2693 140.286C15.5214 140.804 16.659 141.564 17.6173 142.523C18.5756 143.481 19.3358 144.619 19.8544 145.871C20.3731 147.123 20.64 148.465 20.64 149.82V157.36C20.6374 160.096 19.5492 162.72 17.6144 164.654C15.6796 166.589 13.0562 167.677 10.32 167.68ZM10.32 144.26C8.85582 144.276 7.45698 144.869 6.42722 145.91C5.39745 146.951 4.81991 148.356 4.82 149.82V157.36C4.7882 158.109 4.90833 158.857 5.17316 159.559C5.43799 160.261 5.84204 160.902 6.361 161.443C6.87997 161.984 7.50311 162.415 8.19294 162.71C8.88276 163.004 9.625 163.156 10.375 163.156C11.125 163.156 11.8672 163.004 12.5571 162.71C13.2469 162.415 13.87 161.984 14.389 161.443C14.908 160.902 15.312 160.261 15.5768 159.559C15.8417 158.857 15.9618 158.109 15.93 157.36V149.82C15.93 149.086 15.7846 148.359 15.502 147.681C15.2195 147.003 14.8055 146.388 14.2839 145.871C13.7623 145.354 13.1434 144.945 12.4631 144.669C11.7827 144.392 11.0543 144.253 10.32 144.26Z" fill="#46386C"/>
<path d="M10.3199 151.97C9.68873 151.97 9.08336 151.719 8.63703 151.273C8.19069 150.827 7.93994 150.221 7.93994 149.59V126.2C7.93994 125.569 8.19069 124.963 8.63703 124.517C9.08336 124.071 9.68873 123.82 10.3199 123.82C10.9512 123.82 11.5565 124.071 12.0029 124.517C12.4492 124.963 12.6999 125.569 12.6999 126.2V149.62C12.6947 150.247 12.4413 150.846 11.9952 151.287C11.5492 151.727 10.9468 151.973 10.3199 151.97Z" fill="#46386C"/>
<path d="M10.32 136.72C7.58378 136.717 4.96038 135.629 3.02558 133.694C1.09078 131.76 0.00264753 129.136 0 126.4V118.86C8.157e-08 116.123 1.08728 113.498 3.02266 111.563C4.95803 109.627 7.58297 108.54 10.32 108.54C13.057 108.54 15.682 109.627 17.6173 111.563C19.5527 113.498 20.64 116.123 20.64 118.86V126.4C20.6374 129.136 19.5492 131.76 17.6144 133.694C15.6796 135.629 13.0562 136.717 10.32 136.72ZM10.32 113.31C8.85755 113.326 7.46021 113.917 6.43073 114.956C5.40125 115.995 4.82255 117.397 4.82 118.86V126.4C4.7882 127.149 4.90833 127.897 5.17316 128.599C5.43799 129.301 5.84204 129.942 6.361 130.483C6.87997 131.024 7.50311 131.455 8.19294 131.75C8.88276 132.044 9.625 132.196 10.375 132.196C11.125 132.196 11.8672 132.044 12.5571 131.75C13.2469 131.455 13.87 131.024 14.389 130.483C14.908 129.942 15.312 129.301 15.5768 128.599C15.8417 127.897 15.9618 127.149 15.93 126.4V118.86C15.9287 118.126 15.7823 117.4 15.4992 116.724C15.216 116.047 14.8018 115.433 14.2803 114.917C13.7589 114.401 13.1405 113.994 12.4608 113.718C11.7811 113.442 11.0535 113.303 10.32 113.31Z" fill="#46386C"/>
<path d="M10.3199 121.04C9.68873 121.04 9.08336 120.789 8.63703 120.343C8.19069 119.897 7.93994 119.291 7.93994 118.66V95.25C7.93994 94.6188 8.19069 94.0134 8.63703 93.5671C9.08336 93.1208 9.68873 92.87 10.3199 92.87C10.9512 92.87 11.5565 93.1208 12.0029 93.5671C12.4492 94.0134 12.6999 94.6188 12.6999 95.25V118.66C12.7013 118.973 12.6406 119.283 12.5215 119.572C12.4023 119.862 12.2271 120.125 12.0058 120.346C11.7845 120.567 11.5216 120.742 11.2323 120.862C10.9429 120.981 10.6329 121.041 10.3199 121.04Z" fill="#46386C"/>
<path d="M10.32 105.76C7.5847 105.76 4.96128 104.674 3.02619 102.741C1.0911 100.808 0.00265049 98.1854 0 95.4501V87.9001C8.157e-08 85.163 1.08728 82.5381 3.02266 80.6027C4.95803 78.6674 7.58297 77.5801 10.32 77.5801C13.057 77.5801 15.682 78.6674 17.6173 80.6027C19.5527 82.5381 20.64 85.163 20.64 87.9001V95.4501C20.6373 98.1854 19.5489 100.808 17.6138 102.741C15.6787 104.674 13.0553 105.76 10.32 105.76ZM10.32 82.3501C8.85755 82.3659 7.46021 82.9572 6.43073 83.9961C5.40125 85.0349 4.82255 86.4375 4.82 87.9001V95.4501C4.88079 96.8826 5.49262 98.2362 6.52774 99.2283C7.56285 100.22 8.94121 100.774 10.375 100.774C11.8088 100.774 13.1871 100.22 14.2223 99.2283C15.2574 98.2362 15.8692 96.8826 15.93 95.4501V87.9001C15.9287 87.1665 15.7823 86.4405 15.4992 85.7638C15.216 85.0871 14.8018 84.4732 14.2803 83.9573C13.7589 83.4414 13.1405 83.0338 12.4608 82.7579C11.7811 82.4821 11.0535 82.3435 10.32 82.3501Z" fill="#46386C"/>
<path d="M10.3199 90.09C9.68954 90.0874 9.0857 89.8358 8.63993 89.39C8.19417 88.9443 7.94257 88.3404 7.93994 87.71V64.29C7.93994 63.6588 8.19069 63.0535 8.63703 62.6071C9.08336 62.1608 9.68873 61.91 10.3199 61.91C10.9512 61.91 11.5565 62.1608 12.0029 62.6071C12.4492 63.0535 12.6999 63.6588 12.6999 64.29V87.71C12.6999 88.3412 12.4492 88.9466 12.0029 89.3929C11.5565 89.8393 10.9512 90.09 10.3199 90.09Z" fill="#46386C"/>
<path d="M10.32 74.81C7.58378 74.8074 4.96038 73.7192 3.02558 71.7844C1.09078 69.8496 0.00264753 67.2262 0 64.49V56.97C-4.03893e-08 55.6148 0.266936 54.2728 0.785564 53.0207C1.30419 51.7686 2.06436 50.631 3.02266 49.6727C3.98096 48.7144 5.11863 47.9542 6.37071 47.4356C7.62279 46.917 8.96476 46.65 10.32 46.65C11.6752 46.65 13.0172 46.917 14.2693 47.4356C15.5214 47.9542 16.659 48.7144 17.6173 49.6727C18.5756 50.631 19.3358 51.7686 19.8544 53.0207C20.3731 54.2728 20.64 55.6148 20.64 56.97V64.51C20.6321 67.2428 19.5416 69.861 17.6074 71.7915C15.6731 73.722 13.0528 74.8074 10.32 74.81ZM10.32 51.39C8.85235 51.4059 7.45049 52.0014 6.42017 53.0467C5.38984 54.092 4.81463 55.5023 4.82 56.97V64.51C4.88079 65.9425 5.49262 67.2962 6.52774 68.2883C7.56285 69.2804 8.94121 69.8343 10.375 69.8343C11.8088 69.8343 13.1871 69.2804 14.2223 68.2883C15.2574 67.2962 15.8692 65.9425 15.93 64.51V56.97C15.9327 56.234 15.7892 55.5047 15.5078 54.8245C15.2265 54.1444 14.8129 53.5268 14.291 53.0078C13.7691 52.4887 13.1494 52.0784 12.4677 51.8007C11.7861 51.523 11.056 51.3834 10.32 51.39Z" fill="#46386C"/>
<path d="M10.3199 59.13C9.68954 59.1273 9.0857 58.8757 8.63993 58.43C8.19417 57.9842 7.94257 57.3804 7.93994 56.7499V33.3299C7.93994 32.6987 8.19069 32.0934 8.63703 31.647C9.08336 31.2007 9.68873 30.95 10.3199 30.95C10.9512 30.95 11.5565 31.2007 12.0029 31.647C12.4492 32.0934 12.6999 32.6987 12.6999 33.3299V56.7499C12.6999 57.3812 12.4492 57.9865 12.0029 58.4329C11.5565 58.8792 10.9512 59.13 10.3199 59.13Z" fill="#46386C"/>
<path d="M10.32 43.85C7.58378 43.8474 4.96038 42.7592 3.02558 40.8244C1.09078 38.8896 0.00264753 36.2662 0 33.53V25.97C8.157e-08 23.233 1.08728 20.6081 3.02266 18.6727C4.95803 16.7373 7.58297 15.65 10.32 15.65C13.057 15.65 15.682 16.7373 17.6173 18.6727C19.5527 20.6081 20.64 23.233 20.64 25.97V33.51C20.6413 34.8666 20.3754 36.2101 19.8575 37.4639C19.3396 38.7177 18.5798 39.8572 17.6215 40.8174C16.6632 41.7775 15.5252 42.5395 14.2724 43.0599C13.0196 43.5802 11.6766 43.8487 10.32 43.85ZM10.32 20.43C8.86009 20.4484 7.46574 21.0392 6.43709 22.0753C5.40844 23.1114 4.82775 24.51 4.82 25.97V33.51C4.7882 34.2593 4.90833 35.0074 5.17316 35.709C5.43799 36.4107 5.84204 37.0516 6.361 37.593C6.87997 38.1345 7.50311 38.5653 8.19294 38.8597C8.88276 39.154 9.625 39.3058 10.375 39.3058C11.125 39.3058 11.8672 39.154 12.5571 38.8597C13.2469 38.5653 13.87 38.1345 14.389 37.593C14.908 37.0516 15.312 36.4107 15.5768 35.709C15.8417 35.0074 15.9618 34.2593 15.93 33.51V25.97C15.9261 25.2377 15.7778 24.5134 15.4936 23.8384C15.2094 23.1635 14.7949 22.5512 14.2739 22.0366C13.7528 21.5221 13.1354 21.1153 12.4569 20.8396C11.7785 20.5639 11.0523 20.4248 10.32 20.43Z" fill="#46386C"/>
<path d="M10.3199 28.17C9.68873 28.17 9.08336 27.9193 8.63703 27.4729C8.19069 27.0266 7.93994 26.4212 7.93994 25.79V2.38C7.93994 1.74879 8.19069 1.14342 8.63703 0.697086C9.08336 0.25075 9.68873 0 10.3199 0C10.9512 0 11.5565 0.25075 12.0029 0.697086C12.4492 1.14342 12.6999 1.74879 12.6999 2.38V25.79C12.7013 26.1029 12.6406 26.413 12.5215 26.7024C12.4023 26.9917 12.2271 27.2546 12.0058 27.4759C11.7845 27.6971 11.5216 27.8724 11.2323 27.9915C10.9429 28.1107 10.6329 28.1713 10.3199 28.17Z" fill="#46386C"/>
</svg>
