<svg width="21" height="354" viewBox="0 0 21 354" fill="none" xmlns="http://www.w3.org/2000/svg">
<path d="M10.32 353.43C7.5873 353.417 4.97114 352.321 3.0444 350.383C1.11767 348.445 0.0373665 345.823 0.040044 343.09V335.55C0.040044 332.813 1.12733 330.188 3.0627 328.253C4.99808 326.317 7.62301 325.23 10.36 325.23C13.0971 325.23 15.722 326.317 17.6574 328.253C19.5928 330.188 20.68 332.813 20.68 335.55V343.09C20.6814 344.45 20.4142 345.797 19.8937 347.053C19.3733 348.31 18.6099 349.451 17.6474 350.411C16.6849 351.372 15.5421 352.133 14.2847 352.651C13.0273 353.169 11.68 353.434 10.32 353.43ZM10.32 330.01C8.84544 330.01 7.43123 330.596 6.38853 331.638C5.34583 332.681 4.76005 334.095 4.76005 335.57V343.09C4.82084 344.522 5.43267 345.876 6.46778 346.868C7.50289 347.86 8.88126 348.414 10.315 348.414C11.7488 348.414 13.1272 347.86 14.1623 346.868C15.1974 345.876 15.8093 344.522 15.87 343.09V335.55C15.8648 334.081 15.278 332.673 14.238 331.635C13.1981 330.597 11.7895 330.013 10.32 330.01Z" fill="#46386C"/>
<path d="M10.3199 337.75C9.68872 337.75 9.08336 337.499 8.63702 337.053C8.19069 336.607 7.93994 336.001 7.93994 335.37V311.95C7.93994 311.319 8.19069 310.713 8.63702 310.267C9.08336 309.821 9.68872 309.57 10.3199 309.57C10.9512 309.57 11.5565 309.821 12.0029 310.267C12.4492 310.713 12.6999 311.319 12.6999 311.95V335.37C12.6973 336 12.4457 336.604 11.9999 337.05C11.5542 337.496 10.9503 337.747 10.3199 337.75Z" fill="#46386C"/>
<path d="M10.32 322.47C7.58378 322.467 4.96038 321.379 3.02558 319.444C1.09078 317.51 0.00264753 314.886 0 312.15V304.61C0 301.873 1.08728 299.248 3.02266 297.313C4.95803 295.377 7.58297 294.29 10.32 294.29C13.057 294.29 15.682 295.377 17.6173 297.313C19.5527 299.248 20.64 301.873 20.64 304.61V312.15C20.6374 314.886 19.5492 317.51 17.6144 319.444C15.6796 321.379 13.0562 322.467 10.32 322.47ZM10.32 299.09C8.84621 299.093 7.43353 299.679 6.3914 300.721C5.34927 301.764 4.76265 303.176 4.76 304.65V312.19C4.7282 312.939 4.84833 313.687 5.11316 314.389C5.37799 315.091 5.78204 315.732 6.301 316.273C6.81997 316.814 7.44311 317.245 8.13293 317.54C8.82276 317.834 9.56501 317.986 10.315 317.986C11.065 317.986 11.8072 317.834 12.4971 317.54C13.1869 317.245 13.81 316.814 14.329 316.273C14.848 315.732 15.252 315.091 15.5168 314.389C15.7817 313.687 15.9018 312.939 15.87 312.19V304.65C15.8674 303.178 15.2821 301.767 14.2421 300.725C13.2022 299.683 11.7921 299.095 10.32 299.09Z" fill="#46386C"/>
<path d="M10.32 306.79C10.007 306.791 9.69697 306.731 9.40761 306.612C9.11826 306.492 8.85536 306.317 8.63409 306.096C8.41283 305.875 8.23757 305.612 8.11843 305.322C7.99929 305.033 7.93864 304.723 7.93996 304.41V281C7.93996 280.369 8.19071 279.764 8.63705 279.317C9.08338 278.871 9.68874 278.62 10.32 278.62C10.9512 278.62 11.5565 278.871 12.0029 279.317C12.4492 279.764 12.7 280.369 12.7 281V304.41C12.7 305.041 12.4492 305.647 12.0029 306.093C11.5565 306.539 10.9512 306.79 10.32 306.79Z" fill="#46386C"/>
<path d="M10.32 291.51C7.59076 291.497 4.97762 290.404 3.05145 288.47C1.12529 286.537 0.0426492 283.919 0.0400391 281.19V273.65C0.0400391 270.913 1.12732 268.288 3.0627 266.353C4.99807 264.417 7.623 263.33 10.36 263.33C13.0971 263.33 15.722 264.417 17.6574 266.353C19.5928 268.288 20.68 270.913 20.68 273.65V281.19C20.6787 282.548 20.4096 283.893 19.888 285.147C19.3664 286.401 18.6026 287.54 17.6403 288.499C16.678 289.457 15.5362 290.217 14.2801 290.733C13.024 291.25 11.6783 291.514 10.32 291.51ZM10.32 268.09C8.84717 268.09 7.43447 268.674 6.39205 269.715C5.34964 270.756 4.76269 272.167 4.76004 273.64V281.18C4.72824 281.929 4.84837 282.677 5.1132 283.379C5.37803 284.081 5.78208 284.722 6.30104 285.263C6.82 285.805 7.44315 286.235 8.13297 286.53C8.8228 286.824 9.56504 286.976 10.315 286.976C11.065 286.976 11.8073 286.824 12.4971 286.53C13.1869 286.235 13.8101 285.805 14.329 285.263C14.848 284.722 15.252 284.081 15.5169 283.379C15.7817 282.677 15.9018 281.929 15.87 281.18V273.64C15.8674 272.169 15.2818 270.759 14.2416 269.719C13.2013 268.678 11.7912 268.093 10.32 268.09Z" fill="#46386C"/>
<path d="M10.32 275.84C10.0066 275.84 9.69627 275.778 9.40686 275.658C9.11745 275.538 8.85463 275.361 8.6335 275.139C8.41236 274.917 8.23726 274.654 8.11825 274.364C7.99923 274.074 7.93865 273.763 7.93996 273.45V250.09C7.93996 249.459 8.19071 248.853 8.63704 248.407C9.08338 247.961 9.68874 247.71 10.32 247.71C10.9512 247.71 11.5565 247.961 12.0029 248.407C12.4492 248.853 12.7 249.459 12.7 250.09V273.5C12.6869 274.123 12.4307 274.717 11.9861 275.154C11.5414 275.591 10.9435 275.837 10.32 275.84Z" fill="#46386C"/>
<path d="M10.32 260.56C7.58378 260.557 4.96038 259.469 3.02558 257.534C1.09078 255.6 0.00264753 252.976 0 250.24V242.7C0 239.963 1.08728 237.338 3.02266 235.403C4.95803 233.467 7.58297 232.38 10.32 232.38C13.057 232.38 15.682 233.467 17.6173 235.403C19.5527 237.338 20.64 239.963 20.64 242.7V250.24C20.6374 252.976 19.5492 255.6 17.6144 257.534C15.6796 259.469 13.0562 260.557 10.32 260.56ZM10.32 237.14C8.8454 237.14 7.43119 237.726 6.38849 238.768C5.34579 239.811 4.76 241.225 4.76 242.7V250.24C4.82079 251.672 5.43262 253.026 6.46774 254.018C7.50285 255.01 8.88121 255.564 10.315 255.564C11.7488 255.564 13.1271 255.01 14.1623 254.018C15.1974 253.026 15.8092 251.672 15.87 250.24V242.7C15.87 241.227 15.2856 239.814 14.245 238.772C13.2045 237.729 11.7929 237.143 10.32 237.14Z" fill="#46386C"/>
<path d="M10.3199 244.88C9.68872 244.88 9.08336 244.629 8.63702 244.183C8.19069 243.737 7.93994 243.131 7.93994 242.5V219.09C7.93994 218.459 8.19069 217.853 8.63702 217.407C9.08336 216.961 9.68872 216.71 10.3199 216.71C10.9512 216.71 11.5565 216.961 12.0029 217.407C12.4492 217.853 12.6999 218.459 12.6999 219.09V242.51C12.6947 243.139 12.4419 243.74 11.9964 244.184C11.551 244.627 10.9486 244.877 10.3199 244.88Z" fill="#46386C"/>
<path d="M10.32 229.6C7.58378 229.597 4.96038 228.509 3.02558 226.574C1.09078 224.64 0.00264753 222.016 0 219.28V211.74C0 209.003 1.08728 206.378 3.02266 204.443C4.95803 202.507 7.58297 201.42 10.32 201.42C13.057 201.42 15.682 202.507 17.6173 204.443C19.5527 206.378 20.64 209.003 20.64 211.74V219.28C20.6374 222.016 19.5492 224.64 17.6144 226.574C15.6796 228.509 13.0562 229.597 10.32 229.6ZM10.32 206.18C8.8454 206.18 7.43119 206.766 6.38849 207.808C5.34579 208.851 4.76 210.265 4.76 211.74V219.28C4.7282 220.029 4.84833 220.777 5.11316 221.479C5.37799 222.181 5.78204 222.821 6.301 223.363C6.81997 223.904 7.44311 224.335 8.13293 224.63C8.82276 224.924 9.56501 225.076 10.315 225.076C11.065 225.076 11.8072 224.924 12.4971 224.63C13.1869 224.335 13.81 223.904 14.329 223.363C14.848 222.821 15.252 222.181 15.5168 221.479C15.7817 220.777 15.9018 220.029 15.87 219.28V211.74C15.87 210.267 15.2856 208.854 14.245 207.812C13.2045 206.77 11.7929 206.183 10.32 206.18Z" fill="#46386C"/>
<path d="M10.32 213.92C10.007 213.921 9.69697 213.861 9.40761 213.741C9.11826 213.622 8.85536 213.447 8.63409 213.226C8.41283 213.005 8.23757 212.742 8.11843 212.452C7.99929 212.163 7.93864 211.853 7.93996 211.54V188.09C7.93996 187.459 8.19071 186.853 8.63705 186.407C9.08338 185.961 9.68874 185.71 10.32 185.71C10.9512 185.71 11.5565 185.961 12.0029 186.407C12.4492 186.853 12.7 187.459 12.7 188.09V211.51C12.7039 211.825 12.6453 212.138 12.5275 212.43C12.4097 212.722 12.235 212.988 12.0136 213.212C11.7922 213.437 11.5285 213.614 11.2377 213.736C10.947 213.857 10.635 213.92 10.32 213.92Z" fill="#46386C"/>
<path d="M10.32 198.64C7.58378 198.637 4.96038 197.549 3.02558 195.614C1.09078 193.68 0.00264753 191.056 0 188.32V180.78C0 178.043 1.08728 175.418 3.02266 173.483C4.95803 171.547 7.58297 170.46 10.32 170.46C13.057 170.46 15.682 171.547 17.6173 173.483C19.5527 175.418 20.64 178.043 20.64 180.78V188.32C20.6374 191.056 19.5492 193.68 17.6144 195.614C15.6796 197.549 13.0562 198.637 10.32 198.64ZM10.32 175.23C8.84713 175.23 7.43443 175.814 6.39201 176.855C5.3496 177.895 4.76265 179.307 4.76 180.78V188.32C4.7282 189.069 4.84833 189.817 5.11316 190.519C5.37799 191.221 5.78204 191.862 6.301 192.403C6.81997 192.944 7.44311 193.375 8.13293 193.67C8.82276 193.964 9.56501 194.116 10.315 194.116C11.065 194.116 11.8072 193.964 12.4971 193.67C13.1869 193.375 13.81 192.944 14.329 192.403C14.848 191.862 15.252 191.221 15.5168 190.519C15.7817 189.817 15.9018 189.069 15.87 188.32V180.78C15.8674 179.309 15.2818 177.899 14.2415 176.858C13.2013 175.818 11.7911 175.233 10.32 175.23Z" fill="#46386C"/>
<path d="M10.32 182.96C10.007 182.961 9.69697 182.901 9.40761 182.782C9.11826 182.662 8.85536 182.487 8.63409 182.266C8.41283 182.045 8.23757 181.782 8.11843 181.492C7.99929 181.203 7.93864 180.893 7.93996 180.58V157.17C7.93996 156.539 8.19071 155.933 8.63705 155.487C9.08338 155.041 9.68874 154.79 10.32 154.79C10.9512 154.79 11.5565 155.041 12.0029 155.487C12.4492 155.933 12.7 156.539 12.7 157.17V180.58C12.7 181.211 12.4492 181.817 12.0029 182.263C11.5565 182.709 10.9512 182.96 10.32 182.96Z" fill="#46386C"/>
<path d="M10.32 167.68C7.5847 167.68 4.96128 166.594 3.02619 164.661C1.0911 162.728 0.00265049 160.105 0 157.37V149.82C0 147.083 1.08728 144.458 3.02266 142.523C4.95803 140.587 7.58297 139.5 10.32 139.5C13.057 139.5 15.682 140.587 17.6173 142.523C19.5527 144.458 20.64 147.083 20.64 149.82V157.37C20.6373 160.105 19.5489 162.728 17.6138 164.661C15.6787 166.594 13.0553 167.68 10.32 167.68ZM10.32 144.27C8.84713 144.27 7.43443 144.854 6.39201 145.895C5.3496 146.935 4.76265 148.347 4.76 149.82V157.37C4.82079 158.802 5.43262 160.156 6.46774 161.148C7.50285 162.14 8.88121 162.694 10.315 162.694C11.7488 162.694 13.1271 162.14 14.1623 161.148C15.1974 160.156 15.8092 158.802 15.87 157.37V149.82C15.8674 148.349 15.2818 146.939 14.2415 145.898C13.2013 144.858 11.7911 144.273 10.32 144.27Z" fill="#46386C"/>
<path d="M10.3199 152.01C9.68872 152.01 9.08336 151.759 8.63702 151.313C8.19069 150.867 7.93994 150.261 7.93994 149.63V126.21C7.93994 125.579 8.19069 124.973 8.63702 124.527C9.08336 124.081 9.68872 123.83 10.3199 123.83C10.9512 123.83 11.5565 124.081 12.0029 124.527C12.4492 124.973 12.6999 125.579 12.6999 126.21V149.63C12.6973 150.26 12.4457 150.864 11.9999 151.31C11.5542 151.756 10.9503 152.007 10.3199 152.01Z" fill="#46386C"/>
<path d="M10.32 136.73C7.58378 136.727 4.96038 135.639 3.02558 133.704C1.09078 131.77 0.00264753 129.146 0 126.41V118.87C0 116.133 1.08728 113.508 3.02266 111.573C4.95803 109.637 7.58297 108.55 10.32 108.55C13.057 108.55 15.682 109.637 17.6173 111.573C19.5527 113.508 20.64 116.133 20.64 118.87V126.41C20.6374 129.146 19.5492 131.77 17.6144 133.704C15.6796 135.639 13.0562 136.727 10.32 136.73ZM10.32 113.31C8.8454 113.31 7.43119 113.896 6.38849 114.939C5.34579 115.981 4.76 117.395 4.76 118.87V126.41C4.82079 127.843 5.43262 129.196 6.46774 130.188C7.50285 131.18 8.88121 131.734 10.315 131.734C11.7488 131.734 13.1271 131.18 14.1623 130.188C15.1974 129.196 15.8092 127.843 15.87 126.41V118.87C15.87 117.397 15.2856 115.984 14.245 114.942C13.2045 113.9 11.7929 113.313 10.32 113.31Z" fill="#46386C"/>
<path d="M10.3199 121.09C9.68872 121.09 9.08336 120.839 8.63702 120.393C8.19069 119.947 7.93994 119.341 7.93994 118.71V95.25C7.93994 94.6188 8.19069 94.0134 8.63702 93.5671C9.08336 93.1207 9.68872 92.87 10.3199 92.87C10.9512 92.87 11.5565 93.1207 12.0029 93.5671C12.4492 94.0134 12.6999 94.6188 12.6999 95.25V118.67C12.7039 118.986 12.6453 119.299 12.5276 119.592C12.4099 119.884 12.2354 120.151 12.0141 120.376C11.7929 120.601 11.5292 120.78 11.2385 120.902C10.9477 121.025 10.6355 121.089 10.3199 121.09Z" fill="#46386C"/>
<path d="M10.32 105.77C7.58378 105.767 4.96038 104.679 3.02558 102.744C1.09078 100.81 0.00264753 98.1862 0 95.45V87.91C0 85.1729 1.08728 82.548 3.02266 80.6126C4.95803 78.6772 7.58297 77.59 10.32 77.59C13.057 77.59 15.682 78.6772 17.6173 80.6126C19.5527 82.548 20.64 85.1729 20.64 87.91V95.45C20.6374 98.1862 19.5492 100.81 17.6144 102.744C15.6796 104.679 13.0562 105.767 10.32 105.77ZM10.32 82.35C8.84621 82.3526 7.43353 82.9392 6.3914 83.9814C5.34927 85.0235 4.76265 86.4362 4.76 87.91V95.45C4.7282 96.1993 4.84833 96.9473 5.11316 97.649C5.37799 98.3507 5.78204 98.9915 6.301 99.533C6.81997 100.074 7.44311 100.505 8.13293 100.8C8.82276 101.094 9.56501 101.246 10.315 101.246C11.065 101.246 11.8072 101.094 12.4971 100.8C13.1869 100.505 13.81 100.074 14.329 99.533C14.848 98.9915 15.252 98.3507 15.5168 97.649C15.7817 96.9473 15.9018 96.1993 15.87 95.45V87.91C15.8674 86.4379 15.2821 85.0267 14.2421 83.9849C13.2022 82.943 11.7921 82.3553 10.32 82.35Z" fill="#46386C"/>
<path d="M10.32 90.09C10.007 90.0914 9.69697 90.0307 9.40761 89.9116C9.11826 89.7924 8.85536 89.6172 8.63409 89.3959C8.41283 89.1746 8.23757 88.9117 8.11843 88.6224C7.99929 88.333 7.93864 88.023 7.93996 87.71V64.3C7.93996 63.6688 8.19071 63.0635 8.63705 62.6171C9.08338 62.1708 9.68874 61.92 10.32 61.92C10.9512 61.92 11.5565 62.1708 12.0029 62.6171C12.4492 63.0635 12.7 63.6688 12.7 64.3V87.71C12.7 88.3413 12.4492 88.9466 12.0029 89.393C11.5565 89.8393 10.9512 90.09 10.32 90.09Z" fill="#46386C"/>
<path d="M10.32 74.81C7.59076 74.7968 4.97762 73.704 3.05145 71.7703C1.12529 69.8367 0.0426492 67.2193 0.0400391 64.49V56.95C0.0400391 54.213 1.12732 51.588 3.0627 49.6527C4.99807 47.7173 7.623 46.63 10.36 46.63C13.0971 46.63 15.722 47.7173 17.6574 49.6527C19.5928 51.588 20.68 54.213 20.68 56.95V64.49C20.6787 65.8482 20.4096 67.1929 19.888 68.447C19.3664 69.7011 18.6026 70.84 17.6403 71.7986C16.678 72.7571 15.5362 73.5165 14.2801 74.0333C13.024 74.55 11.6783 74.8139 10.32 74.81ZM10.32 51.4C8.84717 51.4 7.43447 51.9844 6.39205 53.025C5.34964 54.0655 4.76269 55.4771 4.76004 56.95V64.49C4.72824 65.2393 4.84837 65.9873 5.1132 66.689C5.37803 67.3907 5.78208 68.0316 6.30104 68.573C6.82 69.1145 7.44315 69.5453 8.13297 69.8397C8.8228 70.134 9.56504 70.2857 10.315 70.2857C11.065 70.2857 11.8073 70.134 12.4971 69.8397C13.1869 69.5453 13.8101 69.1145 14.329 68.573C14.848 68.0316 15.252 67.3907 15.5169 66.689C15.7817 65.9873 15.9018 65.2393 15.87 64.49V56.95C15.8674 55.4789 15.2818 54.0687 14.2416 53.0285C13.2013 51.9882 11.7912 51.4026 10.32 51.4Z" fill="#46386C"/>
<path d="M10.32 59.14C10.0066 59.14 9.69627 59.0781 9.40686 58.9578C9.11745 58.8376 8.85463 58.6614 8.6335 58.4393C8.41236 58.2173 8.23726 57.9537 8.11825 57.6638C7.99923 57.3739 7.93865 57.0633 7.93996 56.75V33.34C7.93996 32.7087 8.19071 32.1034 8.63704 31.657C9.08338 31.2107 9.68874 30.96 10.32 30.96C10.9512 30.96 11.5565 31.2107 12.0029 31.657C12.4492 32.1034 12.7 32.7087 12.7 33.34V56.75C12.7 57.3821 12.4495 57.9885 12.0035 58.4364C11.5574 58.8843 10.9521 59.1373 10.32 59.14Z" fill="#46386C"/>
<path d="M10.32 43.8599C7.59076 43.8467 4.97762 42.7539 3.05145 40.8203C1.12529 38.8866 0.0426492 36.2692 0.0400391 33.5399V25.9999C0.0400391 23.2629 1.12732 20.638 3.0627 18.7026C4.99807 16.7672 7.623 15.6799 10.36 15.6799C13.0971 15.6799 15.722 16.7672 17.6574 18.7026C19.5928 20.638 20.68 23.2629 20.68 25.9999V33.5399C20.6787 34.8982 20.4096 36.2428 19.888 37.4969C19.3664 38.751 18.6026 39.8899 17.6403 40.8485C16.678 41.8071 15.5362 42.5664 14.2801 43.0832C13.024 43.5999 11.6783 43.8639 10.32 43.8599ZM10.32 20.4399C8.84543 20.4399 7.43123 21.0257 6.38853 22.0684C5.34582 23.1111 4.76004 24.5253 4.76004 25.9999V33.5399C4.82083 34.9724 5.43266 36.3261 6.46777 37.3182C7.50289 38.3103 8.88125 38.8642 10.315 38.8642C11.7488 38.8642 13.1272 38.3103 14.1623 37.3182C15.1974 36.3261 15.8092 34.9724 15.87 33.5399V25.9999C15.87 24.5271 15.2856 23.1144 14.2451 22.0719C13.2045 21.0295 11.7929 20.4426 10.32 20.4399Z" fill="#46386C"/>
<path d="M10.3199 28.18C9.68872 28.18 9.08336 27.9293 8.63702 27.4829C8.19069 27.0366 7.93994 26.4312 7.93994 25.8V2.38C7.93994 1.74879 8.19069 1.14342 8.63702 0.697086C9.08336 0.25075 9.68872 0 10.3199 0C10.9512 0 11.5565 0.25075 12.0029 0.697086C12.4492 1.14342 12.6999 1.74879 12.6999 2.38V25.8C12.6973 26.4304 12.4457 27.0342 11.9999 27.48C11.5542 27.9258 10.9503 28.1774 10.3199 28.18Z" fill="#46386C"/>
</svg>
