<svg width="21" height="468" viewBox="0 0 21 468" fill="none" xmlns="http://www.w3.org/2000/svg">
<path d="M10.3199 451.24C7.58718 451.237 4.96682 450.152 3.03259 448.222C1.09836 446.291 0.00793512 443.673 0 440.94V433.4C0 430.663 1.08721 428.038 3.02258 426.103C4.95796 424.167 7.58291 423.08 10.3199 423.08C13.057 423.08 15.6819 424.167 17.6173 426.103C19.5527 428.038 20.64 430.663 20.64 433.4V440.94C20.6321 443.673 19.5415 446.291 17.6073 448.222C15.6731 450.152 13.0527 451.237 10.3199 451.24ZM10.3199 427.82C8.84615 427.823 7.43349 428.409 6.39136 429.451C5.34923 430.494 4.76265 431.906 4.76001 433.38V440.94C4.76001 442.415 5.34573 443.829 6.38843 444.872C7.43113 445.914 8.84534 446.5 10.3199 446.5C11.7945 446.5 13.2088 445.914 14.2515 444.872C15.2942 443.829 15.88 442.415 15.88 440.94V433.4C15.8813 432.669 15.7385 431.944 15.4598 431.268C15.1811 430.591 14.7719 429.977 14.2556 429.459C13.7393 428.94 13.1261 428.529 12.4508 428.248C11.7755 427.967 11.0514 427.821 10.3199 427.82Z" fill="#46386C"/>
<path d="M10.3199 435.56C9.68873 435.56 9.08342 435.309 8.63708 434.863C8.19075 434.416 7.93994 433.811 7.93994 433.18V409.76C7.93994 409.129 8.19075 408.523 8.63708 408.077C9.08342 407.631 9.68873 407.38 10.3199 407.38C10.9512 407.38 11.5566 407.631 12.0029 408.077C12.4493 408.523 12.7 409.129 12.7 409.76V433.18C12.7 433.811 12.4493 434.416 12.0029 434.863C11.5566 435.309 10.9512 435.56 10.3199 435.56Z" fill="#46386C"/>
<path d="M10.32 467.54C10.0071 467.541 9.69697 467.481 9.40761 467.362C9.11826 467.242 8.85544 467.067 8.63418 466.846C8.41291 466.625 8.23757 466.362 8.11843 466.072C7.99929 465.783 7.93864 465.473 7.93996 465.16V441.74C7.93996 441.109 8.19077 440.504 8.63711 440.057C9.08344 439.611 9.68875 439.36 10.32 439.36C10.9512 439.36 11.5566 439.611 12.003 440.057C12.4493 440.504 12.7 441.109 12.7 441.74V465.16C12.7013 465.473 12.6406 465.783 12.5215 466.072C12.4024 466.362 12.2271 466.625 12.0059 466.846C11.7846 467.067 11.5217 467.242 11.2323 467.362C10.943 467.481 10.6329 467.541 10.32 467.54Z" fill="#46386C"/>
<path d="M10.32 420.28C8.9634 420.279 7.62035 420.01 6.36756 419.49C5.11477 418.97 3.97674 418.208 3.01844 417.247C2.06014 416.287 1.30039 415.148 0.782476 413.894C0.264558 412.64 -0.00130901 411.297 4.84586e-06 409.94V402.4C4.84586e-06 399.663 1.08721 397.038 3.02259 395.103C4.95796 393.167 7.58292 392.08 10.32 392.08C13.057 392.08 15.6819 393.167 17.6173 395.103C19.5527 397.038 20.64 399.663 20.64 402.4V409.94C20.6413 411.297 20.3753 412.64 19.8574 413.894C19.3395 415.148 18.5798 416.287 17.6215 417.247C16.6632 418.208 15.5251 418.97 14.2723 419.49C13.0196 420.01 11.6765 420.279 10.32 420.28ZM10.32 396.86C8.84616 396.863 7.43349 397.449 6.39136 398.491C5.34923 399.534 4.76266 400.946 4.76001 402.42V409.94C4.76002 411.415 5.34573 412.829 6.38843 413.872C7.43113 414.914 8.84535 415.5 10.32 415.5C11.7946 415.5 13.2088 414.914 14.2515 413.872C15.2942 412.829 15.88 411.415 15.88 409.94V402.4C15.8721 400.93 15.2831 399.522 14.2416 398.484C13.2 397.447 11.7903 396.863 10.32 396.86Z" fill="#46386C"/>
<path d="M10.32 404.6C10.0071 404.601 9.69697 404.541 9.40761 404.421C9.11826 404.302 8.85544 404.127 8.63418 403.906C8.41291 403.684 8.23757 403.422 8.11843 403.132C7.99929 402.843 7.93864 402.533 7.93996 402.22V378.8C7.93996 378.169 8.19077 377.563 8.63711 377.117C9.08344 376.671 9.68875 376.42 10.32 376.42C10.9512 376.42 11.5566 376.671 12.003 377.117C12.4493 377.563 12.7 378.169 12.7 378.8V402.22C12.7013 402.533 12.6406 402.843 12.5215 403.132C12.4024 403.422 12.2271 403.684 12.0059 403.906C11.7846 404.127 11.5217 404.302 11.2323 404.421C10.943 404.541 10.6329 404.601 10.32 404.6Z" fill="#46386C"/>
<path d="M10.3199 389.32C7.58372 389.317 4.96031 388.229 3.02551 386.295C1.09071 384.36 0.00264753 381.736 0 379V371.46C0 368.723 1.08721 366.098 3.02258 364.163C4.95796 362.227 7.58291 361.14 10.3199 361.14C13.057 361.14 15.6819 362.227 17.6173 364.163C19.5527 366.098 20.64 368.723 20.64 371.46V379C20.6374 381.736 19.5492 384.36 17.6144 386.295C15.6796 388.229 13.0562 389.317 10.3199 389.32ZM10.3199 365.9C8.84615 365.903 7.43349 366.489 6.39136 367.532C5.34923 368.574 4.76265 369.986 4.76001 371.46V379C4.76001 380.475 5.34573 381.889 6.38843 382.932C7.43113 383.974 8.84534 384.56 10.3199 384.56C11.7945 384.56 13.2088 383.974 14.2515 382.932C15.2942 381.889 15.88 380.475 15.88 379V371.46C15.8668 369.993 15.2755 368.591 14.2345 367.557C13.1935 366.524 11.7868 365.943 10.3199 365.94V365.9Z" fill="#46386C"/>
<path d="M10.32 373.64C10.0071 373.641 9.69697 373.581 9.40761 373.461C9.11826 373.342 8.85544 373.167 8.63418 372.946C8.41291 372.725 8.23757 372.462 8.11843 372.172C7.99929 371.883 7.93864 371.573 7.93996 371.26V347.85C7.93996 347.219 8.19077 346.613 8.63711 346.167C9.08344 345.721 9.68875 345.47 10.32 345.47C10.9512 345.47 11.5566 345.721 12.003 346.167C12.4493 346.613 12.7 347.219 12.7 347.85V371.26C12.7013 371.573 12.6406 371.883 12.5215 372.172C12.4024 372.462 12.2271 372.725 12.0059 372.946C11.7846 373.167 11.5217 373.342 11.2323 373.461C10.943 373.581 10.6329 373.641 10.32 373.64Z" fill="#46386C"/>
<path d="M10.3199 358.36C7.58372 358.357 4.96031 357.269 3.02551 355.334C1.09071 353.4 0.00264753 350.776 0 348.04V340.5C0 337.763 1.08721 335.138 3.02258 333.203C4.95796 331.267 7.58291 330.18 10.3199 330.18C13.057 330.18 15.6819 331.267 17.6173 333.203C19.5527 335.138 20.64 337.763 20.64 340.5V348.04C20.6374 350.776 19.5492 353.4 17.6144 355.334C15.6796 357.269 13.0562 358.357 10.3199 358.36ZM10.3199 334.95C8.84788 334.953 7.43674 335.538 6.3949 336.578C5.35305 337.618 4.76529 339.028 4.76001 340.5V348.04C4.76001 349.515 5.34573 350.929 6.38843 351.971C7.43113 353.014 8.84534 353.6 10.3199 353.6C11.7945 353.6 13.2088 353.014 14.2515 351.971C15.2942 350.929 15.88 349.515 15.88 348.04V340.5C15.8774 339.026 15.2907 337.613 14.2485 336.571C13.2064 335.529 11.7937 334.943 10.3199 334.94V334.95Z" fill="#46386C"/>
<path d="M10.3199 342.69C9.68873 342.69 9.08342 342.439 8.63708 341.993C8.19075 341.547 7.93994 340.941 7.93994 340.31V316.94C7.93994 316.309 8.19075 315.703 8.63708 315.257C9.08342 314.811 9.68873 314.56 10.3199 314.56C10.9512 314.56 11.5566 314.811 12.0029 315.257C12.4493 315.703 12.7 316.309 12.7 316.94V340.36C12.6869 340.983 12.4304 341.575 11.9855 342.011C11.5405 342.446 10.9426 342.69 10.3199 342.69Z" fill="#46386C"/>
<path d="M10.3199 327.41C7.58372 327.407 4.96031 326.319 3.02551 324.384C1.09071 322.45 0.00264753 319.826 0 317.09V309.55C0 306.813 1.08721 304.188 3.02258 302.253C4.95796 300.317 7.58291 299.23 10.3199 299.23C13.057 299.23 15.6819 300.317 17.6173 302.253C19.5527 304.188 20.64 306.813 20.64 309.55V317.09C20.6374 319.826 19.5492 322.45 17.6144 324.384C15.6796 326.319 13.0562 327.407 10.3199 327.41ZM10.3199 303.99C8.84615 303.993 7.43349 304.579 6.39136 305.621C5.34923 306.663 4.76265 308.076 4.76001 309.55V317.09C4.76001 318.565 5.34573 319.979 6.38843 321.021C7.43113 322.064 8.84534 322.65 10.3199 322.65C11.7945 322.65 13.2088 322.064 14.2515 321.021C15.2942 319.979 15.88 318.565 15.88 317.09V309.55C15.8774 308.076 15.2907 306.663 14.2485 305.621C13.2064 304.579 11.7937 303.993 10.3199 303.99Z" fill="#46386C"/>
<path d="M10.3199 311.73C9.68873 311.73 9.08342 311.479 8.63708 311.033C8.19075 310.587 7.93994 309.981 7.93994 309.35V285.94C7.93994 285.309 8.19075 284.703 8.63708 284.257C9.08342 283.811 9.68873 283.56 10.3199 283.56C10.9512 283.56 11.5566 283.811 12.0029 284.257C12.4493 284.703 12.7 285.309 12.7 285.94V309.36C12.6973 309.99 12.4454 310.592 11.9994 311.037C11.5533 311.481 10.9494 311.73 10.3199 311.73Z" fill="#46386C"/>
<path d="M10.3199 296.45C7.58372 296.447 4.96031 295.359 3.02551 293.424C1.09071 291.49 0.00264753 288.866 0 286.13V278.59C0 275.853 1.08721 273.228 3.02258 271.293C4.95796 269.357 7.58291 268.27 10.3199 268.27C13.057 268.27 15.6819 269.357 17.6173 271.293C19.5527 273.228 20.64 275.853 20.64 278.59V286.13C20.6374 288.866 19.5492 291.49 17.6144 293.424C15.6796 295.359 13.0562 296.447 10.3199 296.45ZM10.3199 273.03C8.84615 273.033 7.43349 273.619 6.39136 274.661C5.34923 275.704 4.76265 277.116 4.76001 278.59V286.13C4.76001 287.605 5.34573 289.019 6.38843 290.062C7.43113 291.104 8.84534 291.69 10.3199 291.69C11.7945 291.69 13.2088 291.104 14.2515 290.062C15.2942 289.019 15.88 287.605 15.88 286.13V278.59C15.8774 277.116 15.2907 275.704 14.2485 274.661C13.2064 273.619 11.7937 273.033 10.3199 273.03Z" fill="#46386C"/>
<path d="M10.32 280.77C10.0071 280.771 9.69697 280.711 9.40761 280.592C9.11826 280.472 8.85544 280.297 8.63418 280.076C8.41291 279.855 8.23757 279.592 8.11843 279.302C7.99929 279.013 7.93864 278.703 7.93996 278.39V254.94C7.93996 254.309 8.19077 253.703 8.63711 253.257C9.08344 252.811 9.68875 252.56 10.32 252.56C10.9512 252.56 11.5566 252.811 12.003 253.257C12.4493 253.703 12.7 254.309 12.7 254.94V278.36C12.7053 278.676 12.6476 278.989 12.5303 279.282C12.413 279.574 12.2383 279.841 12.0166 280.065C11.795 280.29 11.5307 280.468 11.2394 280.589C10.9481 280.71 10.6354 280.771 10.32 280.77Z" fill="#46386C"/>
<path d="M10.3199 265.49C7.58372 265.487 4.96031 264.399 3.02551 262.464C1.09071 260.53 0.00264753 257.906 0 255.17V247.63C0 244.893 1.08721 242.268 3.02258 240.333C4.95796 238.397 7.58291 237.31 10.3199 237.31C13.057 237.31 15.6819 238.397 17.6173 240.333C19.5527 242.268 20.64 244.893 20.64 247.63V255.17C20.6374 257.906 19.5492 260.53 17.6144 262.464C15.6796 264.399 13.0562 265.487 10.3199 265.49ZM10.3199 242.08C8.84788 242.083 7.43674 242.668 6.3949 243.708C5.35305 244.748 4.76529 246.158 4.76001 247.63V255.17C4.76001 256.645 5.34573 258.059 6.38843 259.102C7.43113 260.144 8.84534 260.73 10.3199 260.73C11.7945 260.73 13.2088 260.144 14.2515 259.102C15.2942 258.059 15.88 256.645 15.88 255.17V247.63C15.8747 246.158 15.2868 244.748 14.245 243.708C13.2032 242.668 11.792 242.083 10.3199 242.08Z" fill="#46386C"/>
<path d="M10.32 249.82C10.0066 249.82 9.69629 249.758 9.40688 249.638C9.11747 249.518 8.8547 249.342 8.63357 249.12C8.41243 248.897 8.23732 248.634 8.11831 248.344C7.99929 248.054 7.93865 247.744 7.93996 247.43V224.02C7.93996 223.389 8.19077 222.784 8.63711 222.337C9.08344 221.891 9.68875 221.64 10.32 221.64C10.9512 221.64 11.5566 221.891 12.003 222.337C12.4493 222.784 12.7 223.389 12.7 224.02V247.43C12.7013 247.744 12.6408 248.054 12.5217 248.344C12.4027 248.634 12.2276 248.897 12.0065 249.12C11.7854 249.342 11.5225 249.518 11.2331 249.638C10.9436 249.758 10.6334 249.82 10.32 249.82Z" fill="#46386C"/>
<path d="M10.3199 234.54C7.58372 234.537 4.96031 233.449 3.02551 231.514C1.09071 229.579 0.00264753 226.956 0 224.22V216.68C0 213.943 1.08721 211.318 3.02258 209.383C4.95796 207.447 7.58291 206.36 10.3199 206.36C13.057 206.36 15.6819 207.447 17.6173 209.383C19.5527 211.318 20.64 213.943 20.64 216.68V224.22C20.6374 226.956 19.5492 229.579 17.6144 231.514C15.6796 233.449 13.0562 234.537 10.3199 234.54ZM10.3199 211.12C8.84615 211.123 7.43349 211.709 6.39136 212.751C5.34923 213.793 4.76265 215.206 4.76001 216.68V224.22C4.76001 225.694 5.34573 227.109 6.38843 228.151C7.43113 229.194 8.84534 229.78 10.3199 229.78C11.7945 229.78 13.2088 229.194 14.2515 228.151C15.2942 227.109 15.88 225.694 15.88 224.22V216.68C15.8774 215.206 15.2907 213.793 14.2485 212.751C13.2064 211.709 11.7937 211.123 10.3199 211.12Z" fill="#46386C"/>
<path d="M10.3199 218.86C9.68873 218.86 9.08342 218.609 8.63708 218.163C8.19075 217.717 7.93994 217.111 7.93994 216.48V193.06C7.93994 192.429 8.19075 191.823 8.63708 191.377C9.08342 190.931 9.68873 190.68 10.3199 190.68C10.9512 190.68 11.5566 190.931 12.0029 191.377C12.4493 191.823 12.7 192.429 12.7 193.06V216.48C12.7 217.111 12.4493 217.717 12.0029 218.163C11.5566 218.609 10.9512 218.86 10.3199 218.86Z" fill="#46386C"/>
<path d="M10.3199 203.58C7.58372 203.577 4.96031 202.489 3.02551 200.554C1.09071 198.62 0.00264753 195.996 0 193.26V185.72C0 182.983 1.08721 180.358 3.02258 178.423C4.95796 176.487 7.58291 175.4 10.3199 175.4C13.057 175.4 15.6819 176.487 17.6173 178.423C19.5527 180.358 20.64 182.983 20.64 185.72V193.26C20.6374 195.996 19.5492 198.62 17.6144 200.554C15.6796 202.489 13.0562 203.577 10.3199 203.58ZM10.3199 180.16C8.84615 180.163 7.43349 180.749 6.39136 181.791C5.34923 182.833 4.76265 184.246 4.76001 185.72V193.26C4.76001 194.735 5.34573 196.149 6.38843 197.191C7.43113 198.234 8.84534 198.82 10.3199 198.82C11.7945 198.82 13.2088 198.234 14.2515 197.191C15.2942 196.149 15.88 194.735 15.88 193.26V185.72C15.8774 184.246 15.2907 182.833 14.2485 181.791C13.2064 180.749 11.7937 180.163 10.3199 180.16Z" fill="#46386C"/>
<path d="M10.32 187.94C10.0071 187.941 9.69697 187.881 9.40761 187.762C9.11826 187.642 8.85544 187.467 8.63418 187.246C8.41291 187.025 8.23757 186.762 8.11843 186.472C7.99929 186.183 7.93864 185.873 7.93996 185.56V162.1C7.93996 161.469 8.19077 160.863 8.63711 160.417C9.08344 159.971 9.68875 159.72 10.32 159.72C10.9512 159.72 11.5566 159.971 12.003 160.417C12.4493 160.863 12.7 161.469 12.7 162.1V185.52C12.7066 185.836 12.65 186.151 12.5332 186.445C12.4165 186.739 12.2421 187.006 12.0203 187.232C11.7985 187.457 11.5337 187.636 11.2417 187.758C10.9497 187.879 10.6363 187.941 10.32 187.94Z" fill="#46386C"/>
<path d="M10.3199 172.62C7.58372 172.617 4.96031 171.529 3.02551 169.594C1.09071 167.66 0.00264753 165.036 0 162.3V154.76C0 152.023 1.08721 149.398 3.02258 147.463C4.95796 145.527 7.58291 144.44 10.3199 144.44C13.057 144.44 15.6819 145.527 17.6173 147.463C19.5527 149.398 20.64 152.023 20.64 154.76V162.3C20.6374 165.036 19.5492 167.66 17.6144 169.594C15.6796 171.529 13.0562 172.617 10.3199 172.62ZM10.3199 149.2C8.84615 149.203 7.43349 149.789 6.39136 150.831C5.34923 151.873 4.76265 153.286 4.76001 154.76V162.3C4.76001 163.775 5.34573 165.189 6.38843 166.231C7.43113 167.274 8.84534 167.86 10.3199 167.86C11.7945 167.86 13.2088 167.274 14.2515 166.231C15.2942 165.189 15.88 163.775 15.88 162.3V154.76C15.8774 153.286 15.2907 151.873 14.2485 150.831C13.2064 149.789 11.7937 149.203 10.3199 149.2Z" fill="#46386C"/>
<path d="M10.32 156.94C10.0071 156.941 9.69697 156.881 9.40761 156.762C9.11826 156.642 8.85544 156.467 8.63418 156.246C8.41291 156.025 8.23757 155.762 8.11843 155.472C7.99929 155.183 7.93864 154.873 7.93996 154.56V131.15C7.93996 130.519 8.19077 129.913 8.63711 129.467C9.08344 129.021 9.68875 128.77 10.32 128.77C10.9512 128.77 11.5566 129.021 12.003 129.467C12.4493 129.913 12.7 130.519 12.7 131.15V154.56C12.7013 154.873 12.6406 155.183 12.5215 155.472C12.4024 155.762 12.2271 156.025 12.0059 156.246C11.7846 156.467 11.5217 156.642 11.2323 156.762C10.943 156.881 10.6329 156.941 10.32 156.94Z" fill="#46386C"/>
<path d="M10.3199 141.66C7.58372 141.657 4.96031 140.569 3.02551 138.634C1.09071 136.7 0.00264753 134.076 0 131.34V123.8C0 121.063 1.08721 118.438 3.02258 116.503C4.95796 114.567 7.58291 113.48 10.3199 113.48C13.057 113.48 15.6819 114.567 17.6173 116.503C19.5527 118.438 20.64 121.063 20.64 123.8V131.34C20.6374 134.076 19.5492 136.7 17.6144 138.634C15.6796 140.569 13.0562 141.657 10.3199 141.66ZM10.3199 118.25C8.84788 118.253 7.43674 118.838 6.3949 119.878C5.35305 120.918 4.76529 122.328 4.76001 123.8V131.34C4.76001 132.815 5.34573 134.229 6.38843 135.271C7.43113 136.314 8.84534 136.9 10.3199 136.9C11.7945 136.9 13.2088 136.314 14.2515 135.271C15.2942 134.229 15.88 132.815 15.88 131.34V123.8C15.8747 122.328 15.2868 120.918 14.245 119.878C13.2032 118.838 11.792 118.253 10.3199 118.25Z" fill="#46386C"/>
<path d="M10.3199 125.99C9.68873 125.99 9.08342 125.739 8.63708 125.293C8.19075 124.847 7.93994 124.241 7.93994 123.61V100.19C7.93994 99.5588 8.19075 98.9535 8.63708 98.5071C9.08342 98.0608 9.68873 97.8101 10.3199 97.8101C10.9512 97.8101 11.5566 98.0608 12.0029 98.5071C12.4493 98.9535 12.7 99.5588 12.7 100.19V123.61C12.7 124.241 12.4493 124.847 12.0029 125.293C11.5566 125.739 10.9512 125.99 10.3199 125.99Z" fill="#46386C"/>
<path d="M10.3199 109.06C7.58372 109.057 4.96031 107.969 3.02551 106.034C1.09071 104.1 0.00264753 101.476 0 98.74V91.2C0 88.463 1.08721 85.838 3.02258 83.9027C4.95796 81.9673 7.58291 80.88 10.3199 80.88C13.057 80.88 15.6819 81.9673 17.6173 83.9027C19.5527 85.838 20.64 88.463 20.64 91.2V98.74C20.6374 101.476 19.5492 104.1 17.6144 106.034C15.6796 107.969 13.0562 109.057 10.3199 109.06ZM10.3199 85.65C8.84788 85.6526 7.43674 86.2379 6.3949 87.2779C5.35305 88.3178 4.76529 89.7279 4.76001 91.2V98.74C4.76001 100.215 5.34573 101.629 6.38843 102.672C7.43113 103.714 8.84534 104.3 10.3199 104.3C11.7945 104.3 13.2088 103.714 14.2515 102.672C15.2942 101.629 15.88 100.215 15.88 98.74V91.2C15.8747 89.7279 15.2868 88.3178 14.245 87.2779C13.2032 86.2379 11.792 85.6526 10.3199 85.65Z" fill="#46386C"/>
<path d="M10.32 93.38C10.0071 93.3813 9.69697 93.3206 9.40761 93.2015C9.11826 93.0824 8.85544 92.9071 8.63418 92.6858C8.41291 92.4646 8.23757 92.2017 8.11843 91.9123C7.99929 91.623 7.93864 91.3129 7.93996 91V67.59C7.93996 66.9588 8.19077 66.3534 8.63711 65.9071C9.08344 65.4607 9.68875 65.21 10.32 65.21C10.9512 65.21 11.5566 65.4607 12.003 65.9071C12.4493 66.3534 12.7 66.9588 12.7 67.59V91C12.7013 91.3129 12.6406 91.623 12.5215 91.9123C12.4024 92.2017 12.2271 92.4646 12.0059 92.6858C11.7846 92.9071 11.5217 93.0824 11.2323 93.2015C10.943 93.3206 10.6329 93.3813 10.32 93.38Z" fill="#46386C"/>
<path d="M10.3199 76.46C7.58372 76.4574 4.96031 75.3692 3.02551 73.4344C1.09071 71.4996 0.00264753 68.8763 0 66.14V58.6C0 55.863 1.08721 53.2381 3.02258 51.3027C4.95796 49.3673 7.58291 48.28 10.3199 48.28C13.057 48.28 15.6819 49.3673 17.6173 51.3027C19.5527 53.2381 20.64 55.863 20.64 58.6V66.14C20.6374 68.8763 19.5492 71.4996 17.6144 73.4344C15.6796 75.3692 13.0562 76.4574 10.3199 76.46ZM10.3199 53.04C8.84615 53.0427 7.43349 53.6293 6.39136 54.6714C5.34923 55.7136 4.76265 57.1262 4.76001 58.6V66.14C4.76001 67.6146 5.34573 69.0288 6.38843 70.0715C7.43113 71.1143 8.84534 71.7 10.3199 71.7C11.7945 71.7 13.2088 71.1143 14.2515 70.0715C15.2942 69.0288 15.88 67.6146 15.88 66.14V58.6C15.8774 57.1262 15.2907 55.7136 14.2485 54.6714C13.2064 53.6293 11.7937 53.0427 10.3199 53.04Z" fill="#46386C"/>
<path d="M10.32 60.7801C10.0071 60.7814 9.69697 60.7207 9.40761 60.6016C9.11826 60.4825 8.85544 60.3072 8.63418 60.0859C8.41291 59.8647 8.23757 59.6018 8.11843 59.3124C7.99929 59.0231 7.93864 58.713 7.93996 58.4001V34.9401C7.93996 34.3088 8.19077 33.7035 8.63711 33.2571C9.08344 32.8108 9.68875 32.5601 10.32 32.5601C10.9512 32.5601 11.5566 32.8108 12.003 33.2571C12.4493 33.7035 12.7 34.3088 12.7 34.9401V58.4001C12.7013 58.713 12.6406 59.0231 12.5215 59.3124C12.4024 59.6018 12.2271 59.8647 12.0059 60.0859C11.7846 60.3072 11.5217 60.4825 11.2323 60.6016C10.943 60.7207 10.6329 60.7814 10.32 60.7801Z" fill="#46386C"/>
<path d="M10.3199 43.8599C7.58372 43.8573 4.96031 42.7691 3.02551 40.8343C1.09071 38.8995 0.00264753 36.2761 0 33.5399V25.9999C0 23.2629 1.08721 20.638 3.02258 18.7026C4.95796 16.7672 7.58291 15.6799 10.3199 15.6799C13.057 15.6799 15.6819 16.7672 17.6173 18.7026C19.5527 20.638 20.64 23.2629 20.64 25.9999V33.5399C20.6374 36.2761 19.5492 38.8995 17.6144 40.8343C15.6796 42.7691 13.0562 43.8573 10.3199 43.8599ZM10.3199 20.4399C8.84615 20.4426 7.43349 21.0292 6.39136 22.0713C5.34923 23.1135 4.76265 24.5261 4.76001 25.9999V33.5399C4.76001 35.0145 5.34573 36.4287 6.38843 37.4714C7.43113 38.5141 8.84534 39.0999 10.3199 39.0999C11.7945 39.0999 13.2088 38.5141 14.2515 37.4714C15.2942 36.4287 15.88 35.0145 15.88 33.5399V25.9999C15.8774 24.5261 15.2907 23.1135 14.2485 22.0713C13.2064 21.0292 11.7937 20.4426 10.3199 20.4399Z" fill="#46386C"/>
<path d="M10.3199 28.18C9.68873 28.18 9.08342 27.9293 8.63708 27.4829C8.19075 27.0366 7.93994 26.4312 7.93994 25.8V2.38C7.93994 1.74879 8.19075 1.14342 8.63708 0.697086C9.08342 0.25075 9.68873 0 10.3199 0C10.9512 0 11.5566 0.25075 12.0029 0.697086C12.4493 1.14342 12.7 1.74879 12.7 2.38V25.8C12.7 26.4312 12.4493 27.0366 12.0029 27.4829C11.5566 27.9293 10.9512 28.18 10.3199 28.18Z" fill="#46386C"/>
</svg>
