<svg width="21" height="200" viewBox="0 0 21 200" fill="none" xmlns="http://www.w3.org/2000/svg">
<path d="M10.3199 199.635C7.58464 199.635 4.96121 198.549 3.02612 196.615C1.09103 194.682 0.00265049 192.06 0 189.325V181.775C0 179.038 1.08721 176.413 3.02258 174.477C4.95796 172.542 7.58291 171.455 10.3199 171.455C13.057 171.455 15.6819 172.542 17.6173 174.477C19.5527 176.413 20.6399 179.038 20.6399 181.775V189.325C20.6372 192.06 19.5489 194.682 17.6138 196.615C15.6787 198.549 13.0552 199.635 10.3199 199.635ZM10.3199 176.225C8.84788 176.227 7.43674 176.812 6.3949 177.852C5.35305 178.892 4.76517 180.303 4.75989 181.775V189.325C4.75989 190.799 5.34573 192.213 6.38843 193.256C7.43113 194.299 8.84534 194.885 10.3199 194.885C11.7945 194.885 13.2088 194.299 14.2515 193.256C15.2942 192.213 15.8799 190.799 15.8799 189.325V181.775C15.8746 180.303 15.2868 178.892 14.245 177.852C13.2032 176.812 11.792 176.227 10.3199 176.225Z" fill="#46386C"/>
<path d="M10.3199 183.964C9.68873 183.964 9.08342 183.714 8.63708 183.267C8.19075 182.821 7.93994 182.216 7.93994 181.584V158.164C7.93994 157.533 8.19075 156.928 8.63708 156.482C9.08342 156.035 9.68873 155.784 10.3199 155.784C10.9512 155.784 11.5565 156.035 12.0028 156.482C12.4491 156.928 12.7 157.533 12.7 158.164V181.584C12.6973 182.215 12.4458 182.819 12 183.264C11.5542 183.71 10.9504 183.962 10.3199 183.964Z" fill="#46386C"/>
<path d="M10.3199 168.685C7.58372 168.682 4.96031 167.594 3.02551 165.659C1.09071 163.724 0.00264753 161.101 0 158.365V150.825C0 148.087 1.08721 145.463 3.02258 143.527C4.95796 141.592 7.58291 140.505 10.3199 140.505C13.057 140.505 15.6819 141.592 17.6173 143.527C19.5527 145.463 20.6399 148.087 20.6399 150.825V158.365C20.6372 161.101 19.5492 163.724 17.6144 165.659C15.6796 167.594 13.0562 168.682 10.3199 168.685ZM10.3199 145.265C8.84615 145.267 7.43349 145.854 6.39136 146.896C5.34923 147.938 4.76253 149.351 4.75989 150.825V158.365C4.75989 159.839 5.34573 161.253 6.38843 162.296C7.43113 163.339 8.84534 163.925 10.3199 163.925C11.7945 163.925 13.2088 163.339 14.2515 162.296C15.2942 161.253 15.8799 159.839 15.8799 158.365V150.825C15.8772 149.351 15.2907 147.938 14.2485 146.896C13.2064 145.854 11.7937 145.267 10.3199 145.265Z" fill="#46386C"/>
<path d="M10.3199 153.044C9.68873 153.044 9.08342 152.794 8.63708 152.347C8.19075 151.901 7.93994 151.296 7.93994 150.664V127.204C7.93994 126.573 8.19075 125.968 8.63708 125.522C9.08342 125.075 9.68873 124.824 10.3199 124.824C10.9512 124.824 11.5565 125.075 12.0028 125.522C12.4491 125.968 12.7 126.573 12.7 127.204V150.624C12.7039 150.94 12.6453 151.253 12.5276 151.546C12.4099 151.839 12.2354 152.105 12.0142 152.33C11.7929 152.555 11.5292 152.734 11.2384 152.857C10.9476 152.979 10.6355 153.043 10.3199 153.044Z" fill="#46386C"/>
<path d="M10.3199 137.725C7.58372 137.722 4.96031 136.634 3.02551 134.699C1.09071 132.764 0.00264753 130.141 0 127.405V119.865C0 117.128 1.08721 114.503 3.02258 112.567C4.95796 110.632 7.58291 109.545 10.3199 109.545C13.057 109.545 15.6819 110.632 17.6173 112.567C19.5527 114.503 20.6399 117.128 20.6399 119.865V127.405C20.6372 130.141 19.5492 132.764 17.6144 134.699C15.6796 136.634 13.0562 137.722 10.3199 137.725ZM10.3199 114.305C8.84615 114.307 7.43349 114.894 6.39136 115.936C5.34923 116.978 4.76253 118.391 4.75989 119.865V127.405C4.75989 128.135 4.90381 128.858 5.18323 129.532C5.46264 130.207 5.87213 130.82 6.38843 131.336C6.90472 131.852 7.51769 132.262 8.19226 132.541C8.86683 132.821 9.5898 132.965 10.3199 132.965C11.0501 132.965 11.7731 132.821 12.4476 132.541C13.1222 132.262 13.7352 131.852 14.2515 131.336C14.7678 130.82 15.1772 130.207 15.4567 129.532C15.7361 128.858 15.8799 128.135 15.8799 127.405V119.865C15.8772 118.391 15.2907 116.978 14.2485 115.936C13.2064 114.894 11.7937 114.307 10.3199 114.305Z" fill="#46386C"/>
<path d="M10.32 122.045C10.0071 122.046 9.69697 121.985 9.40761 121.866C9.11826 121.747 8.85532 121.572 8.63405 121.35C8.41279 121.129 8.23757 120.866 8.11843 120.577C7.99929 120.288 7.93864 119.977 7.93996 119.665V96.2545C7.93996 95.6233 8.19077 95.0179 8.63711 94.5716C9.08344 94.1253 9.68875 93.8745 10.32 93.8745C10.9512 93.8745 11.5565 94.1253 12.0028 94.5716C12.4492 95.0179 12.7 95.6233 12.7 96.2545V119.665C12.7 120.296 12.4492 120.901 12.0028 121.347C11.5565 121.794 10.9512 122.045 10.32 122.045Z" fill="#46386C"/>
<path d="M10.3199 106.764C7.58372 106.762 4.96031 105.674 3.02551 103.739C1.09071 101.804 0.00264753 99.1807 0 96.4445V88.9045C0 86.1674 1.08721 83.5425 3.02258 81.6071C4.95796 79.6718 7.58291 78.5845 10.3199 78.5845C13.057 78.5845 15.6819 79.6718 17.6173 81.6071C19.5527 83.5425 20.6399 86.1674 20.6399 88.9045V96.4445C20.6372 99.1807 19.5492 101.804 17.6144 103.739C15.6796 105.674 13.0562 106.762 10.3199 106.764ZM10.3199 83.3545C8.84788 83.3571 7.43674 83.9424 6.3949 84.9823C5.35305 86.0223 4.76517 87.4324 4.75989 88.9045V96.4445C4.75989 97.1746 4.90381 97.8976 5.18323 98.5722C5.46264 99.2468 5.87213 99.8597 6.38843 100.376C6.90472 100.892 7.51769 101.302 8.19226 101.581C8.86683 101.861 9.5898 102.004 10.3199 102.004C11.0501 102.004 11.7731 101.861 12.4476 101.581C13.1222 101.302 13.7352 100.892 14.2515 100.376C14.7678 99.8597 15.1772 99.2468 15.4567 98.5722C15.7361 97.8976 15.8799 97.1746 15.8799 96.4445V88.9045C15.8746 87.4324 15.2868 86.0223 14.245 84.9823C13.2032 83.9424 11.792 83.3571 10.3199 83.3545Z" fill="#46386C"/>
<path d="M10.32 91.0946C10.0066 91.0946 9.69629 91.0327 9.40688 90.9124C9.11747 90.7922 8.85458 90.616 8.63344 90.3939C8.41231 90.1719 8.23732 89.9083 8.11831 89.6184C7.99929 89.3285 7.93865 89.0179 7.93996 88.7046V65.2945C7.93996 64.6633 8.19077 64.058 8.63711 63.6116C9.08344 63.1653 9.68875 62.9146 10.32 62.9146C10.9512 62.9146 11.5565 63.1653 12.0028 63.6116C12.4492 64.058 12.7 64.6633 12.7 65.2945V88.7046C12.7 89.3367 12.4495 89.9431 12.0034 90.391C11.5574 90.8389 10.9521 91.0919 10.32 91.0946Z" fill="#46386C"/>
<path d="M10.3199 75.8145C7.58372 75.8119 4.96031 74.7237 3.02551 72.7889C1.09071 70.8541 0.00264753 68.2307 0 65.4945V57.9545C0 55.2175 1.08721 52.5926 3.02258 50.6572C4.95796 48.7218 7.58291 47.6345 10.3199 47.6345C13.057 47.6345 15.6819 48.7218 17.6173 50.6572C19.5527 52.5926 20.6399 55.2175 20.6399 57.9545V65.4945C20.6372 68.2307 19.5492 70.8541 17.6144 72.7889C15.6796 74.7237 13.0562 75.8119 10.3199 75.8145ZM10.3199 52.3945C8.84615 52.3972 7.43349 52.9838 6.39136 54.0259C5.34923 55.0681 4.76253 56.4807 4.75989 57.9545V65.4945C4.75989 66.9691 5.34573 68.3833 6.38843 69.426C7.43113 70.4687 8.84534 71.0545 10.3199 71.0545C11.7945 71.0545 13.2088 70.4687 14.2515 69.426C15.2942 68.3833 15.8799 66.9691 15.8799 65.4945V57.9545C15.8772 56.4807 15.2907 55.0681 14.2485 54.0259C13.2064 52.9838 11.7937 52.3972 10.3199 52.3945Z" fill="#46386C"/>
<path d="M10.3199 60.1345C9.68873 60.1345 9.08342 59.8837 8.63708 59.4374C8.19075 58.991 7.93994 58.3857 7.93994 57.7545V34.3345C7.93994 33.7033 8.19075 33.0979 8.63708 32.6516C9.08342 32.2052 9.68873 31.9545 10.3199 31.9545C10.9512 31.9545 11.5565 32.2052 12.0028 32.6516C12.4491 33.0979 12.7 33.7033 12.7 34.3345V57.7545C12.6973 58.3849 12.4458 58.9887 12 59.4345C11.5542 59.8802 10.9504 60.1318 10.3199 60.1345Z" fill="#46386C"/>
<path d="M10.3199 44.8545C7.58372 44.8518 4.96031 43.7637 3.02551 41.8289C1.09071 39.8941 0.00264753 37.2707 0 34.5345V27.0445C0 24.3075 1.08721 21.6825 3.02258 19.7471C4.95796 17.8118 7.58291 16.7245 10.3199 16.7245C13.057 16.7245 15.6819 17.8118 17.6173 19.7471C19.5527 21.6825 20.6399 24.3075 20.6399 27.0445V34.5845C20.6241 37.312 19.5302 39.9226 17.5968 41.8466C15.6634 43.7706 13.0475 44.8519 10.3199 44.8545ZM10.3199 21.4345C8.84615 21.4371 7.43349 22.0238 6.39136 23.0659C5.34923 24.108 4.76253 25.5207 4.75989 26.9945V34.5345C4.75989 35.2646 4.90381 35.9876 5.18323 36.6622C5.46264 37.3368 5.87213 37.9497 6.38843 38.466C6.90472 38.9823 7.51769 39.3918 8.19226 39.6713C8.86683 39.9507 9.5898 40.0945 10.3199 40.0945C11.0501 40.0945 11.7731 39.9507 12.4476 39.6713C13.1222 39.3918 13.7352 38.9823 14.2515 38.466C14.7678 37.9497 15.1772 37.3368 15.4567 36.6622C15.7361 35.9876 15.8799 35.2646 15.8799 34.5345V27.0445C15.8852 26.3105 15.7453 25.5827 15.4684 24.903C15.1915 24.2232 14.7829 23.6049 14.2662 23.0836C13.7495 22.5622 13.1349 22.1482 12.4576 21.8652C11.7804 21.5821 11.0539 21.4358 10.3199 21.4345Z" fill="#46386C"/>
<path d="M10.32 29.1745C10.0071 29.1758 9.69697 29.1152 9.40761 28.996C9.11826 28.8769 8.85532 28.7016 8.63405 28.4804C8.41279 28.2591 8.23757 27.9962 8.11843 27.7069C7.99929 27.4175 7.93864 27.1074 7.93996 26.7945V3.37451C7.93996 2.74329 8.19077 2.13793 8.63711 1.69159C9.08344 1.24526 9.68875 0.994507 10.32 0.994507C10.9512 0.994507 11.5565 1.24526 12.0028 1.69159C12.4492 2.13793 12.7 2.74329 12.7 3.37451V26.7945C12.7 27.4257 12.4492 28.0311 12.0028 28.4774C11.5565 28.9238 10.9512 29.1745 10.32 29.1745Z" fill="#46386C"/>
</svg>
