<svg width="22" height="292" viewBox="0 0 22 292" fill="none" xmlns="http://www.w3.org/2000/svg">
<path d="M11.1 291.675C8.36467 291.672 5.74229 290.583 3.80908 288.648C1.87586 286.713 0.78991 284.09 0.789911 281.355V273.815C0.746888 272.433 0.981934 271.057 1.48095 269.768C1.97997 268.479 2.73285 267.303 3.69494 266.31C4.65703 265.318 5.80863 264.529 7.08154 263.99C8.35444 263.451 9.7227 263.173 11.105 263.173C12.4873 263.173 13.8554 263.451 15.1283 263.99C16.4012 264.529 17.5529 265.318 18.515 266.31C19.4771 267.303 20.23 268.479 20.729 269.768C21.228 271.057 21.4629 272.433 21.4199 273.815V281.355C21.4173 284.091 20.3292 286.714 18.3944 288.649C16.4596 290.584 13.8362 291.672 11.1 291.675ZM11.1 268.255C9.6271 268.257 8.21546 268.844 7.17492 269.887C6.13438 270.929 5.54992 272.342 5.54992 273.815V281.355C5.61071 282.787 6.22257 284.141 7.25768 285.133C8.2928 286.125 9.67119 286.679 11.105 286.679C12.5388 286.679 13.917 286.125 14.9521 285.133C15.9873 284.141 16.5991 282.787 16.6599 281.355V273.815C16.6599 272.34 16.0742 270.926 15.0315 269.883C13.9888 268.84 12.5746 268.255 11.1 268.255Z" fill="#46386C"/>
<path d="M11.1 276.044C10.4696 276.042 9.86569 275.79 9.41992 275.344C8.97415 274.899 8.7226 274.295 8.71997 273.664V250.194C8.75922 249.589 9.0275 249.02 9.47046 248.605C9.91342 248.19 10.4979 247.959 11.105 247.959C11.7121 247.959 12.2964 248.19 12.7394 248.605C13.1823 249.02 13.4507 249.589 13.49 250.194V273.614C13.4953 273.932 13.4373 274.247 13.3196 274.541C13.2019 274.836 13.0267 275.104 12.8042 275.33C12.5817 275.557 12.3165 275.736 12.0239 275.859C11.7313 275.981 11.4172 276.045 11.1 276.044Z" fill="#46386C"/>
<path d="M11.1 260.715C8.36467 260.712 5.74229 259.623 3.80908 257.688C1.87586 255.753 0.78991 253.13 0.789911 250.395V242.855C0.746888 241.473 0.981934 240.097 1.48095 238.808C1.97997 237.519 2.73285 236.343 3.69494 235.35C4.65703 234.358 5.80863 233.569 7.08154 233.03C8.35444 232.491 9.7227 232.213 11.105 232.213C12.4873 232.213 13.8554 232.491 15.1283 233.03C16.4012 233.569 17.5529 234.358 18.515 235.35C19.4771 236.343 20.23 237.519 20.729 238.808C21.228 240.097 21.4629 241.473 21.4199 242.855V250.395C21.4173 253.131 20.3292 255.754 18.3944 257.689C16.4596 259.624 13.8362 260.712 11.1 260.715ZM11.1 237.295C9.62791 237.3 8.21782 237.888 7.17785 238.93C6.13788 239.971 5.55255 241.383 5.54992 242.855V250.395C5.51812 251.144 5.63824 251.892 5.90307 252.594C6.1679 253.295 6.57197 253.936 7.09094 254.478C7.6099 255.019 8.23302 255.45 8.92285 255.744C9.61267 256.039 10.355 256.19 11.105 256.19C11.855 256.19 12.5972 256.039 13.287 255.744C13.9768 255.45 14.5999 255.019 15.1189 254.478C15.6379 253.936 16.0419 253.295 16.3068 252.594C16.5716 251.892 16.6917 251.144 16.6599 250.395V242.855C16.6573 241.381 16.0707 239.968 15.0286 238.926C13.9864 237.884 12.5738 237.297 11.1 237.295Z" fill="#46386C"/>
<path d="M11.0999 245.044C10.4686 245.044 9.8632 244.794 9.41687 244.347C8.97053 243.901 8.71985 243.296 8.71985 242.664V219.244C8.69871 218.918 8.74468 218.591 8.85498 218.284C8.96527 217.976 9.13754 217.694 9.36108 217.456C9.58462 217.217 9.85473 217.027 10.1547 216.897C10.4546 216.767 10.778 216.7 11.1049 216.7C11.4317 216.7 11.7551 216.767 12.0551 216.897C12.355 217.027 12.6251 217.217 12.8486 217.456C13.0722 217.694 13.2443 217.976 13.3546 218.284C13.4649 218.591 13.511 218.918 13.4899 219.244V242.654C13.4912 242.969 13.4302 243.28 13.3105 243.571C13.1909 243.861 13.0149 244.125 12.7927 244.347C12.5705 244.57 12.3066 244.746 12.016 244.865C11.7254 244.985 11.4141 245.046 11.0999 245.044Z" fill="#46386C"/>
<path d="M11.1 229.755C8.36467 229.752 5.74229 228.664 3.80908 226.728C1.87586 224.793 0.78991 222.17 0.789911 219.435V211.895C0.746888 210.513 0.981934 209.137 1.48095 207.848C1.97997 206.559 2.73285 205.383 3.69494 204.391C4.65703 203.398 5.80863 202.609 7.08154 202.07C8.35444 201.531 9.7227 201.253 11.105 201.253C12.4873 201.253 13.8554 201.531 15.1283 202.07C16.4012 202.609 17.5529 203.398 18.515 204.391C19.4771 205.383 20.23 206.559 20.729 207.848C21.228 209.137 21.4629 210.513 21.4199 211.895V219.435C21.4173 222.171 20.3292 224.794 18.3944 226.729C16.4596 228.664 13.8362 229.752 11.1 229.755ZM11.1 206.345C9.62883 206.347 8.21872 206.933 7.17846 207.973C6.13821 209.013 5.55256 210.423 5.54992 211.895V219.435C5.51812 220.184 5.63824 220.932 5.90307 221.634C6.1679 222.335 6.57197 222.976 7.09094 223.518C7.6099 224.059 8.23302 224.49 8.92285 224.784C9.61267 225.079 10.355 225.23 11.105 225.23C11.855 225.23 12.5972 225.079 13.287 224.784C13.9768 224.49 14.5999 224.059 15.1189 223.518C15.6379 222.976 16.0419 222.335 16.3068 221.634C16.5716 220.932 16.6917 220.184 16.6599 219.435V211.895C16.6573 210.422 16.0704 209.01 15.0279 207.97C13.9855 206.929 12.5728 206.345 11.1 206.345Z" fill="#46386C"/>
<path d="M11.1 214.045C10.4678 214.042 9.86243 213.789 9.41638 213.341C8.97033 212.893 8.71997 212.287 8.71997 211.655V188.285C8.75922 187.679 9.0275 187.111 9.47046 186.695C9.91342 186.28 10.4979 186.049 11.105 186.049C11.7121 186.049 12.2964 186.28 12.7394 186.695C13.1823 187.111 13.4507 187.679 13.49 188.285V211.695C13.4795 212.321 13.2231 212.919 12.776 213.359C12.3289 213.798 11.727 214.045 11.1 214.045Z" fill="#46386C"/>
<path d="M11.1 198.804C8.36467 198.802 5.74229 197.713 3.80908 195.778C1.87586 193.843 0.78991 191.22 0.789911 188.484V180.944C0.746888 179.563 0.981934 178.187 1.48095 176.898C1.97997 175.609 2.73285 174.433 3.69494 173.44C4.65703 172.448 5.80863 171.659 7.08154 171.12C8.35444 170.581 9.7227 170.303 11.105 170.303C12.4873 170.303 13.8554 170.581 15.1283 171.12C16.4012 171.659 17.5529 172.448 18.515 173.44C19.4771 174.433 20.23 175.609 20.729 176.898C21.228 178.187 21.4629 179.563 21.4199 180.944V188.484C21.4173 191.221 20.3292 193.844 18.3944 195.779C16.4596 197.714 13.8362 198.802 11.1 198.804ZM11.1 175.384C9.6271 175.387 8.21546 175.974 7.17492 177.016C6.13438 178.059 5.54992 179.472 5.54992 180.944V188.484C5.61071 189.917 6.22257 191.271 7.25768 192.263C8.2928 193.255 9.67119 193.809 11.105 193.809C12.5388 193.809 13.917 193.255 14.9521 192.263C15.9873 191.271 16.5991 189.917 16.6599 188.484V180.944C16.6599 179.47 16.0742 178.056 15.0315 177.013C13.9888 175.97 12.5746 175.384 11.1 175.384Z" fill="#46386C"/>
<path d="M11.1 183.125C10.4696 183.122 9.86569 182.87 9.41992 182.425C8.97415 181.979 8.7226 181.375 8.71997 180.745V157.325C8.75922 156.719 9.0275 156.151 9.47046 155.735C9.91342 155.32 10.4979 155.089 11.105 155.089C11.7121 155.089 12.2964 155.32 12.7394 155.735C13.1823 156.151 13.4507 156.719 13.49 157.325V180.745C13.4873 181.377 13.2343 181.982 12.7864 182.428C12.3385 182.874 11.7321 183.125 11.1 183.125Z" fill="#46386C"/>
<path d="M11.1 167.844C8.36467 167.842 5.74229 166.753 3.80908 164.818C1.87586 162.883 0.78991 160.26 0.789911 157.524V149.984C0.746888 148.603 0.981934 147.227 1.48095 145.938C1.97997 144.649 2.73285 143.473 3.69494 142.48C4.65703 141.488 5.80863 140.699 7.08154 140.16C8.35444 139.621 9.7227 139.343 11.105 139.343C12.4873 139.343 13.8554 139.621 15.1283 140.16C16.4012 140.699 17.5529 141.488 18.515 142.48C19.4771 143.473 20.23 144.649 20.729 145.938C21.228 147.227 21.4629 148.603 21.4199 149.984V157.524C21.4173 160.261 20.3292 162.884 18.3944 164.819C16.4596 166.754 13.8362 167.842 11.1 167.844ZM11.1 144.424C9.62791 144.43 8.21782 145.018 7.17785 146.059C6.13788 147.101 5.55255 148.512 5.54992 149.984V157.524C5.51812 158.274 5.63824 159.022 5.90307 159.723C6.1679 160.425 6.57197 161.066 7.09094 161.607C7.6099 162.149 8.23302 162.58 8.92285 162.874C9.61267 163.168 10.355 163.32 11.105 163.32C11.855 163.32 12.5972 163.168 13.287 162.874C13.9768 162.58 14.5999 162.149 15.1189 161.607C15.6379 161.066 16.0419 160.425 16.3068 159.723C16.5716 159.022 16.6917 158.274 16.6599 157.524V149.984C16.6573 148.511 16.0707 147.098 15.0286 146.056C13.9864 145.014 12.5738 144.427 11.1 144.424Z" fill="#46386C"/>
<path d="M11.1 152.165C10.4688 152.165 9.86333 151.914 9.41699 151.467C8.97066 151.021 8.71997 150.416 8.71997 149.785V126.365C8.75922 125.759 9.0275 125.19 9.47046 124.775C9.91342 124.36 10.4979 124.129 11.105 124.129C11.7121 124.129 12.2964 124.36 12.7394 124.775C13.1823 125.19 13.4507 125.759 13.49 126.365V149.785C13.49 150.098 13.4281 150.408 13.3079 150.698C13.1876 150.987 13.0114 151.25 12.7893 151.471C12.5672 151.692 12.3037 151.867 12.0138 151.986C11.7239 152.105 11.4134 152.166 11.1 152.165Z" fill="#46386C"/>
<path d="M11.1 136.885C8.36467 136.882 5.74229 135.793 3.80908 133.858C1.87586 131.923 0.78991 129.3 0.789911 126.565V119.045C0.746888 117.663 0.981934 116.287 1.48095 114.998C1.97997 113.709 2.73285 112.533 3.69494 111.54C4.65703 110.548 5.80863 109.759 7.08154 109.22C8.35444 108.681 9.7227 108.403 11.105 108.403C12.4873 108.403 13.8554 108.681 15.1283 109.22C16.4012 109.759 17.5529 110.548 18.515 111.54C19.4771 112.533 20.23 113.709 20.729 114.998C21.228 116.287 21.4629 117.663 21.4199 119.045V126.585C21.412 129.317 20.3216 131.936 18.3873 133.866C16.4531 135.797 13.8327 136.882 11.1 136.885ZM11.1 113.475C9.62883 113.477 8.21872 114.063 7.17846 115.103C6.13821 116.143 5.55256 117.553 5.54992 119.025V126.565C5.51812 127.314 5.63824 128.062 5.90307 128.764C6.1679 129.465 6.57197 130.106 7.09094 130.648C7.6099 131.189 8.23302 131.62 8.92285 131.914C9.61267 132.209 10.355 132.36 11.105 132.36C11.855 132.36 12.5972 132.209 13.287 131.914C13.9768 131.62 14.5999 131.189 15.1189 130.648C15.6379 130.106 16.0419 129.465 16.3068 128.764C16.5716 128.062 16.6917 127.314 16.6599 126.565V119.045C16.6612 118.314 16.5184 117.589 16.2396 116.914C15.9608 116.238 15.5515 115.624 15.035 115.107C14.5186 114.589 13.9052 114.179 13.23 113.899C12.5548 113.619 11.831 113.475 11.1 113.475Z" fill="#46386C"/>
<path d="M11.1 121.205C10.4688 121.205 9.86333 120.954 9.41699 120.507C8.97066 120.061 8.71997 119.456 8.71997 118.825V95.4146C8.75922 94.8087 9.0275 94.2405 9.47046 93.8253C9.91342 93.4101 10.4979 93.1791 11.105 93.1791C11.7121 93.1791 12.2964 93.4101 12.7394 93.8253C13.1823 94.2405 13.4507 94.8087 13.49 95.4146V118.825C13.49 119.138 13.4281 119.448 13.3079 119.738C13.1876 120.027 13.0114 120.29 12.7893 120.511C12.5672 120.732 12.3037 120.907 12.0138 121.026C11.7239 121.145 11.4134 121.206 11.1 121.205Z" fill="#46386C"/>
<path d="M11.1001 105.925C8.36653 105.922 5.74567 104.835 3.81274 102.902C1.87982 100.969 0.792687 98.3481 0.790039 95.6146V88.0446C0.873498 85.3645 1.99691 82.822 3.92224 80.9557C5.84757 79.0894 8.42369 78.0458 11.1051 78.0458C13.7865 78.0458 16.3626 79.0894 18.288 80.9557C20.2133 82.822 21.3366 85.3645 21.42 88.0446V95.5946C21.4214 96.9507 21.1554 98.2937 20.6373 99.5469C20.1193 100.8 19.3594 101.939 18.401 102.898C17.4426 103.858 16.3044 104.619 15.0516 105.138C13.7989 105.657 12.4562 105.925 11.1001 105.925ZM11.1001 82.5146C9.62896 82.5172 8.21884 83.1028 7.17859 84.1431C6.13833 85.1833 5.55269 86.5934 5.55005 88.0646V95.6146C5.61084 97.0471 6.2227 98.4007 7.25781 99.3928C8.29292 100.385 9.67131 100.939 11.1051 100.939C12.5389 100.939 13.9172 100.385 14.9523 99.3928C15.9874 98.4007 16.5992 97.0471 16.66 95.6146V88.0446C16.6521 86.5752 16.0628 85.1687 15.021 84.1324C13.9792 83.0962 12.5695 82.5146 11.1001 82.5146Z" fill="#46386C"/>
<path d="M11.1 90.2545C10.4696 90.2518 9.86569 90.0003 9.41992 89.5545C8.97415 89.1087 8.7226 88.5049 8.71997 87.8745V64.4545C8.75922 63.8486 9.0275 63.2804 9.47046 62.8652C9.91342 62.45 10.4979 62.219 11.105 62.219C11.7121 62.219 12.2964 62.45 12.7394 62.8652C13.1823 63.2804 13.4507 63.8486 13.49 64.4545V87.8745C13.4873 88.5066 13.2343 89.112 12.7864 89.558C12.3385 90.0041 11.7321 90.2545 11.1 90.2545Z" fill="#46386C"/>
<path d="M11.1 74.9745C8.36467 74.9718 5.74229 73.8834 3.80908 71.9483C1.87586 70.0132 0.78991 67.3898 0.789911 64.6545V57.1145C0.746888 55.7329 0.981934 54.3567 1.48095 53.0676C1.97997 51.7786 2.73285 50.6029 3.69494 49.6104C4.65703 48.6179 5.80863 47.8287 7.08154 47.2899C8.35444 46.751 9.7227 46.4733 11.105 46.4733C12.4873 46.4733 13.8554 46.751 15.1283 47.2899C16.4012 47.8287 17.5529 48.6179 18.515 49.6104C19.4771 50.6029 20.23 51.7786 20.729 53.0676C21.228 54.3567 21.4629 55.7329 21.4199 57.1145V64.6545C21.4173 67.3907 20.3292 70.0141 18.3944 71.9489C16.4596 73.8837 13.8362 74.9718 11.1 74.9745ZM11.1 51.5545C9.6271 51.5571 8.21546 52.1441 7.17492 53.1865C6.13438 54.2289 5.54992 55.6416 5.54992 57.1145V64.6545C5.61071 66.087 6.22257 67.4406 7.25768 68.4327C8.2928 69.4248 9.67119 69.9787 11.105 69.9787C12.5388 69.9787 13.917 69.4248 14.9521 68.4327C15.9873 67.4406 16.5991 66.087 16.6599 64.6545V57.1145C16.6599 55.6399 16.0742 54.2257 15.0315 53.183C13.9888 52.1403 12.5746 51.5545 11.1 51.5545Z" fill="#46386C"/>
<path d="M11.1 59.2945C10.4696 59.2919 9.86569 59.0403 9.41992 58.5945C8.97415 58.1488 8.7226 57.5449 8.71997 56.9145V33.4945C8.75922 32.8887 9.0275 32.3205 9.47046 31.9053C9.91342 31.4901 10.4979 31.259 11.105 31.259C11.7121 31.259 12.2964 31.4901 12.7394 31.9053C13.1823 32.3205 13.4507 32.8887 13.49 33.4945V56.9145C13.4873 57.5466 13.2343 58.152 12.7864 58.598C12.3385 59.0441 11.7321 59.2945 11.1 59.2945Z" fill="#46386C"/>
<path d="M11.1 44.0445C8.36467 44.0419 5.74229 42.9534 3.80908 41.0183C1.87586 39.0832 0.78991 36.4598 0.789911 33.7245V26.1545C0.746888 24.7729 0.981934 23.3967 1.48095 22.1077C1.97997 20.8186 2.73285 19.6429 3.69494 18.6504C4.65703 17.6579 5.80863 16.8688 7.08154 16.3299C8.35444 15.791 9.7227 15.5133 11.105 15.5133C12.4873 15.5133 13.8554 15.791 15.1283 16.3299C16.4012 16.8688 17.5529 17.6579 18.515 18.6504C19.4771 19.6429 20.23 20.8186 20.729 22.1077C21.228 23.3967 21.4629 24.7729 21.4199 26.1545V33.6945C21.4225 35.0519 21.1576 36.3965 20.6403 37.6515C20.1229 38.9064 19.3633 40.0471 18.4049 41.0083C17.4465 41.9695 16.308 42.7324 15.0546 43.2534C13.8011 43.7744 12.4574 44.0432 11.1 44.0445ZM11.1 20.6245C9.62791 20.6298 8.21782 21.2176 7.17785 22.2594C6.13788 23.3013 5.55255 24.7124 5.54992 26.1845V33.7245C5.51812 34.4738 5.63824 35.2218 5.90307 35.9235C6.1679 36.6252 6.57197 37.2661 7.09094 37.8075C7.6099 38.349 8.23302 38.7798 8.92285 39.0742C9.61267 39.3685 10.355 39.5203 11.105 39.5203C11.855 39.5203 12.5972 39.3685 13.287 39.0742C13.9768 38.7798 14.5999 38.349 15.1189 37.8075C15.6379 37.2661 16.0419 36.6252 16.3068 35.9235C16.5716 35.2218 16.6917 34.4738 16.6599 33.7245V26.1545C16.6573 24.6807 16.0707 23.268 15.0286 22.2259C13.9864 21.1838 12.5738 20.5972 11.1 20.5945V20.6245Z" fill="#46386C"/>
<path d="M11.0999 28.3345C10.4686 28.3345 9.8632 28.0838 9.41687 27.6374C8.97053 27.1911 8.71985 26.5857 8.71985 25.9545V2.54452C8.69871 2.21832 8.74468 1.89127 8.85498 1.58356C8.96527 1.27586 9.13754 0.994047 9.36108 0.755557C9.58462 0.517067 9.85473 0.326967 10.1547 0.197009C10.4546 0.0670517 10.778 0 11.1049 0C11.4317 0 11.7551 0.0670517 12.0551 0.197009C12.355 0.326967 12.6251 0.517067 12.8486 0.755557C13.0722 0.994047 13.2443 1.27586 13.3546 1.58356C13.4649 1.89127 13.511 2.21832 13.4899 2.54452V25.9545C13.4899 26.2679 13.428 26.5782 13.3077 26.8676C13.1875 27.157 13.0112 27.4198 12.7892 27.641C12.5671 27.8621 12.3036 28.0372 12.0137 28.1562C11.7238 28.2752 11.4132 28.3358 11.0999 28.3345Z" fill="#46386C"/>
</svg>
