<svg width="138" height="138" viewBox="0 0 138 138" fill="none" xmlns="http://www.w3.org/2000/svg">
<path opacity="0.2" d="M69 138C107.108 138 138 107.108 138 69C138 30.8923 107.108 0 69 0C30.8924 0 0 30.8923 0 69C0 107.108 30.8924 138 69 138Z" fill="#F3D68F"/>
<path opacity="0.2" d="M68.9999 114.018C93.8626 114.018 114.018 93.8627 114.018 69C114.018 44.1374 93.8626 23.9822 68.9999 23.9822C44.1372 23.9822 23.9819 44.1374 23.9819 69C23.9819 93.8627 44.1372 114.018 68.9999 114.018Z" fill="#F3D68F"/>
<path d="M68.9998 117.121C55.9768 117.119 43.4877 111.944 34.2798 102.735C25.0718 93.5257 19.8989 81.0359 19.8989 68.0129C19.8989 66.4401 20.5237 64.9318 21.6358 63.8197C22.7479 62.7076 24.2563 62.0828 25.8291 62.0828H112.171C112.95 62.0818 113.722 62.2345 114.442 62.532C115.163 62.8296 115.817 63.2663 116.369 63.817C116.92 64.3678 117.358 65.0218 117.656 65.7418C117.955 66.4618 118.108 67.2335 118.108 68.0129C118.108 81.0372 112.934 93.5281 103.725 102.738C94.5151 111.947 82.0242 117.121 68.9998 117.121Z" fill="#CE8772"/>
<path d="M86.7901 107.392C74.4258 107.39 62.5178 102.722 53.4445 94.323C44.3713 85.9235 38.801 74.4101 37.8463 62.0828H25.8291C24.2563 62.0828 22.7479 62.7076 21.6358 63.8197C20.5237 64.9318 19.8989 66.4401 19.8989 68.0129C19.8989 81.0359 25.0718 93.5257 34.2798 102.735C43.4877 111.944 55.9768 117.119 68.9999 117.121C80.7045 117.135 92.0259 112.95 100.909 105.328C96.3279 106.7 91.5716 107.395 86.7901 107.392Z" fill="#BF7576"/>
<path d="M96.2129 72.4624H76.6652C73.514 72.4624 70.9595 75.017 70.9595 78.1682V79.0356C70.9595 82.1868 73.514 84.7414 76.6652 84.7414H96.2129C99.3641 84.7414 101.919 82.1868 101.919 79.0356V78.1682C101.919 75.017 99.3641 72.4624 96.2129 72.4624Z" fill="#EFBB74"/>
</svg>
